<svg width="823" height="872" viewBox="0 0 823 872" fill="none" xmlns="http://www.w3.org/2000/svg">
<path d="M468.674 617H530C530 624.168 531.674 634.214 531.674 648.714V657.714C531.674 670.714 531.674 655.714 532.174 667.714C532.465 674.714 532.174 679.838 532.174 681.714C532.174 688.667 533.174 695.728 533.174 702.714C533.174 710.874 534.674 717.243 534.674 725.486C534.674 726.97 537.114 726.536 538.174 727.714C538.607 728.195 542.751 728.686 543.174 729.214C543.6 729.747 546.81 731.133 547.174 731.714C548.131 733.246 550.419 732.886 551.674 734.214C552.546 735.137 554.316 736.901 554.716 738.214C555.174 739.714 555.231 740.116 556.481 740.714C557.527 741.214 557.081 741.649 557.527 743.714C558.174 746.714 557.527 744.435 557.527 748.214V752.214C557.527 753.66 556.065 757.006 557.527 757.818C559.044 758.661 560.83 758.308 562.674 758.308C563.674 758.308 564.687 758.384 566.174 758.714C568.522 759.236 570.407 759.273 572.811 759.748C575.174 760.214 576.795 759.924 578.641 760.584C580.584 761.278 582.647 762.039 584.657 762.651C587.775 763.6 591.789 765.499 594.674 766.714C596.67 767.555 597.646 768.162 599.547 769.062C601.503 769.989 603.637 771.309 605.674 772.214C608.346 773.402 611.506 775.763 613.674 777.714C618.859 782.38 623.505 786.377 626.674 792.714C629.735 798.836 631.967 804.576 633.174 811.214C633.657 813.872 633.57 817.997 634.174 820.714C634.893 823.95 634.498 822.896 636.12 825.815C637.447 828.204 638.308 829.129 640.174 831.214C641.208 832.37 641.322 839.389 642.101 840.714C642.859 842.003 642.156 844.986 641.174 846.214C639.377 848.46 640.275 850.736 639.174 853.214C637.848 856.197 637.537 855.85 635.174 858.214C632.817 860.571 630.537 860.623 627.674 862.214C625.453 863.448 624.174 863.714 621.174 864.714C619.973 865.114 617.954 866.121 616.782 866.482C614.623 867.146 612.033 867.714 609.674 867.714C607.999 867.714 606.533 868.645 604.674 868.714C603.738 868.749 601.674 869.408 600.383 869.408C599.294 869.408 595.24 870.214 594.174 870.214H588.174H581.674C580.914 870.214 579.431 870.682 578.674 870.714C577.674 870.756 577.174 870.714 576.174 870.756C575.492 870.784 569.835 871.025 569.174 871.214C568.644 871.365 565.645 871.193 565.053 871.214C560.516 871.376 555.656 871.643 551.174 871.714C547.337 871.775 550.042 871.714 546.174 871.714C543.39 871.714 533.949 871.393 531.174 871.214C522.281 870.64 519.952 869.189 511.174 868.214C506.674 867.714 501.935 868.399 497.674 866.714C492.861 864.811 490.19 865.12 485.217 863.462C482.705 862.625 479.797 861.329 477.134 861.139C474.423 860.946 471.581 859.195 469.097 859.049C467.764 858.97 465.699 858.302 464.497 857.701C462.665 856.785 460.547 856.358 458.737 855.286C457.191 854.37 455.465 854.467 453.859 854.008C452.423 853.598 450.89 852.777 449.236 852.777C445.142 852.777 440.027 846.457 438.174 843.214C437.357 841.784 436.068 841.002 435.671 839.214C435.323 837.649 435.449 837.287 435.671 835.844C436.402 831.09 435.429 826.754 437.674 822.714C439.025 820.281 441.174 816.552 441.174 813.714C441.174 809.351 442.674 804.96 442.674 800.714C442.674 796.898 444.284 788.415 444.674 784.714C445.018 781.445 446.491 777.945 447.796 775.009C448.252 773.983 450.358 768.367 451.174 767.714C452.123 766.954 451.174 763.157 451.174 762.214C451.174 760.616 448.174 756.921 448.174 755.214C448.174 753.162 448.674 749.224 448.674 747.214C448.674 745.214 448.848 743.714 450.848 740.714C452.769 737.832 453.674 738.714 455.348 736.714C455.767 736.214 455.74 736.631 457.674 734.214C459.674 731.714 460.174 732.214 462.674 731.714C464.33 731.383 470.174 730.734 470.174 728.714C470.174 719.714 470.267 705.067 470.174 701.714C469.674 683.714 468.674 683.493 468.674 665.714V637.214V617Z" fill="#181029"/>
<path d="M450.799 830.214C451.161 829.489 452.68 830.318 454.094 831.057C455.303 831.426 456.707 831.875 458.094 832.317C461.121 833.281 464.066 834.214 464.72 834.214C465.902 834.214 471.978 836.34 473.101 836.714C482.716 839.919 473.094 836.899 482.799 839.717C484.874 840.319 490.191 841.756 492.299 842.214C496.063 843.032 501.513 844.033 505.344 844.799C509.064 845.544 513.019 845.949 516.799 846.545C536.864 849.714 540.91 849.714 564.906 849.714H565.299C569.299 849.714 585.369 848.059 590.299 847.214C598.49 845.809 601.326 845.82 613.02 842.7C622.868 840.073 626.799 837.17 626.799 841.714V846.077C626.799 848.872 621.561 849.925 618.799 850.714C615.185 851.746 611.07 853.048 607.299 853.714C598.799 855.214 598.235 855.377 592.799 856.214C586.299 857.214 584.299 857.714 576.299 857.714H542.299C539.199 857.714 534.397 856.786 531.299 856.714C528.424 856.647 523.298 856.677 521.799 856.214C520.299 855.75 516.596 855.714 512.299 854.714C507.949 853.701 504.799 853.714 499.299 852.714C496.394 852.186 492.738 852.905 490.056 851.687C487.261 850.416 483.956 849.688 481.055 848.796C478.583 848.035 475.468 847.597 473.101 846.545C472.016 846.063 470.851 846.05 469.783 845.575C468.84 845.156 467.958 844.374 466.99 844.159C466.591 844.071 464.926 843.564 464.72 843.306C464.242 842.708 462.457 842.919 461.771 842.607C458.908 841.306 454.799 841.214 452.299 839.214C451.002 838.177 450.299 836.368 450.299 834.714C450.299 833.2 449.799 832.214 450.799 830.214Z" fill="#7B5B9B"/>
<path d="M482.579 632.539C482.819 628.203 482.259 624.381 482.174 620.268C482.163 619.716 482.612 619.279 483.16 619.349C484.155 619.478 485.372 619.714 486.174 619.714C487.426 619.714 487.964 619.714 489.299 619.714L496.799 619.714L505.299 619.714C507.499 619.714 509.739 619.714 511.918 619.714L513.799 619.714C517.299 619.714 516.799 619.96 516.799 620.714V635.214C516.799 636.98 516.692 639.32 516.799 641.041C517.299 649.119 517.859 656.104 517.859 662.714C517.859 671.195 518.799 676.61 518.799 685.214C518.799 689.714 519.476 697.664 519.799 701.214C520.299 706.714 519.95 708.214 520.136 710.714C520.288 712.764 519.991 714.493 520.136 716.714C520.299 719.214 520.799 719.69 520.799 721.714C520.799 723.948 521.72 728.14 520.799 730.214C520.084 731.821 519.568 732.065 517.299 732.714C516.317 732.994 516.062 732.898 514.799 733.214C510.799 734.214 512.921 733.457 511.799 733.714C508.799 734.399 509.518 733.909 508.299 734.214C506.299 734.714 505.752 734.714 504.299 734.714H497.799C496.299 734.714 495.4 734.653 494.299 734.714C493.357 734.766 487.364 734.012 486.299 734.012C483.549 734.012 484.299 734.317 484.299 731.012V726.363V720.05V713.714C484.299 711.566 484.358 709.861 484.299 707.714C484.188 703.751 484.526 699.143 483.799 695.214C482.893 690.324 484.056 685.136 483.299 680.214C482.674 676.153 483.299 671.714 482.799 667.214C482.246 662.238 482.579 657.366 482.579 652.214C482.579 645.888 482.222 638.96 482.579 632.539Z" fill="#7B5B9B"/>
<path d="M471.799 744.714C474.252 745.204 478.096 745.856 480.183 745.88C480.261 745.881 480.336 745.89 480.412 745.908C483.913 746.735 489.188 747.714 491.799 747.714H495.799C496.784 747.714 499.816 747.771 500.799 747.714C501.782 747.656 504.856 747.214 505.799 747.214C507.693 747.214 509.961 746.673 511.799 746.214C515.799 745.214 515.799 745.214 519.299 744.714C522.692 744.229 524.601 743.627 527.799 742.714C529.364 742.266 531.648 742.126 533.299 741.714C535.299 741.214 538.582 740.714 540.299 740.714C543.053 740.714 544.299 747.299 544.299 749.714C544.299 751.214 544.368 751.536 544.299 752.714C544.218 754.092 542.478 755.731 541.299 756.714C538.299 759.214 539.834 757.305 537.299 758.714C535.305 759.821 532.299 761.714 529.799 762.529C527.948 763.133 526.299 763.714 524.299 764.214C518.786 765.592 514.799 766.214 508.799 766.714C506.307 766.921 504.402 767.214 502.299 767.214H494.799C493.743 767.214 489.799 767.214 487.799 766.714C487.181 766.559 483.932 765.865 483.299 765.714C482.02 765.409 480.303 764.902 478.977 764.587C475.299 763.714 470.799 761.214 467.299 760.214C464.542 759.426 461.299 753.719 461.299 750.714C461.299 749.557 462.419 743.656 464.299 743.552C468.043 743.344 468.126 743.979 471.799 744.714Z" fill="#7B5B9B"/>
<path d="M510.299 783.808C509.748 784.359 509.016 785.605 508.604 786.642C508.385 787.196 508.826 787.69 509.385 787.481C511.27 786.776 513.687 784.714 515.299 784.714C516.157 784.714 516.654 783.225 517.618 783.225C518.653 783.225 520.424 782.84 521.28 782.35C523.376 781.152 525.644 779.671 527.799 778.714C529.318 778.038 533.179 776.214 534.799 776.214C535.632 776.214 536.494 775.708 537.299 775.35C538.127 774.982 539.622 774.658 540.296 774.119C540.808 773.71 542.171 774.119 542.799 774.119C543.839 774.119 544.671 773.635 545.569 773.535C547.635 773.306 548.501 773.017 550.576 773.017C552.394 773.017 556.137 772.279 557.799 773.017C559.947 773.972 561.236 772.97 563.41 773.746C564.244 774.044 566.061 774.184 566.91 774.184C568.03 774.184 569.059 774.767 570.264 774.767C572.132 774.767 574.266 776.014 576.081 776.533C577.817 777.029 580.265 776.904 581.93 777.829C582.73 778.274 584.417 778.799 585.284 778.85C586.159 778.902 587.662 779.781 588.509 780.163C590.542 781.078 592.725 782.33 594.78 782.917C596.789 783.491 597.97 785.272 599.799 786.288C601.787 787.392 605.485 789.878 606.709 791.714C607.709 793.214 609.38 794.258 610.299 795.214C611.805 796.78 612.531 797.629 613.799 799.214C614.463 800.044 615.278 799.276 615.799 800.214C615.983 800.546 616.637 801.891 616.799 802.214C617.299 803.214 617.731 804.142 617.799 804.714C617.892 805.507 618.449 805.444 618.799 806.214C619.304 807.326 619.311 808.617 619.799 809.714C620.122 810.442 620.299 812.443 620.299 813.214C620.299 814.144 620.744 815.239 620.799 816.214L620.801 816.266C620.845 817.058 620.928 818.546 621.299 819.214C621.724 819.98 621.628 821.865 621.799 822.714C622.052 823.973 622.299 824.09 622.299 824.714V826.214C622.299 827.805 622.552 827.174 622.552 828.714C622.552 830.714 620.877 830.42 619.263 830.714C617.213 831.086 613.616 831.266 611.599 831.714C605.53 833.062 601.034 833.531 594.78 834.714C589.49 835.714 588.491 835.714 583.299 835.714C581.501 835.714 577.914 836.714 576.081 836.714C575.556 836.714 570.816 836.836 570.264 836.714C569.05 836.444 566.077 836.714 564.799 836.714C563.366 836.714 558.16 836.554 556.799 836.714L544.799 836.714H533.514C527.937 836.714 521.601 835.551 516.16 834.714C513.834 834.356 509.103 834.226 506.799 833.714C504.486 833.2 502.083 832.721 499.799 832.214C497.42 831.685 496.204 830.81 493.799 830.714C491.5 830.622 491.871 831.135 489.799 830.214C488.76 829.752 485.963 829.214 484.799 829.214C483.842 829.214 480.706 827.764 479.799 827.714C477.354 827.578 475.184 826.354 472.799 826.214C471.588 826.143 470.011 825.434 468.799 825.214C467.977 825.064 466.019 824.2 465.411 823.714C463.937 822.535 461.977 822.956 460.307 822.214C458.602 821.456 454.911 821.714 454.911 820.214C454.911 818.141 455.299 816.863 455.299 814.714C455.299 812.611 455.799 809.203 455.799 807.214V803.714V800.302C455.799 800.243 455.804 800.186 455.814 800.128C455.917 799.557 456.518 796.287 456.917 795.179C457.091 794.694 457.484 792.966 457.799 792.714C458.124 792.454 458.799 790.15 458.799 789.714C458.799 788.635 459.027 788.843 459.299 787.892C459.767 786.252 459.958 784.226 460.799 782.714C461.67 781.145 463.408 777.399 463.799 775.642C464.258 773.574 465.109 773.876 467.299 773.876C470.005 773.876 470.187 775.061 472.799 775.642C475.463 776.234 478.585 777.684 481.299 777.684C483.544 777.684 485.691 779.214 487.799 779.214C490.551 779.214 490.586 779.063 493.299 779.214C495.401 779.33 495.68 779.214 497.799 779.214C499.586 779.214 501.764 779.177 503.541 779.177C507.041 779.177 507.628 779.332 508.299 779.177C510.299 778.714 511.809 778.697 512.806 778.714C513.486 778.725 514.299 779.436 514.299 780.214C514.299 780.863 512.768 781.881 512.299 782.35C511.473 783.176 511.136 782.971 510.299 783.808Z" fill="#7B5B9B"/>
<path d="M82.6745 295.713C90.1745 286.714 95.5 283.308 95.5 286C95.5 287.5 92.6745 309.214 92.6745 348.714V378.714C92.6745 388.181 93.151 399.36 92.8244 400.714C91.8244 404.86 93.2722 402.043 91.3244 408.86C89.395 415.613 84.4523 430.714 83.6745 434.214C82.771 438.28 83.2526 437.017 83.1745 438.714C83.0965 440.411 82.8748 440.078 82.7813 441.075C82.6745 442.214 82.8517 443.869 82.7813 444.714C82.6267 446.57 82.2203 446.508 82.1055 448.574C81.8653 452.898 80.1745 456.453 80.1745 460.714C80.1745 465.277 79.1736 471.214 78.0359 477.061C77.3743 480.462 76.1807 485.214 76.1807 493.214C76.1807 495.934 74.582 505.648 75.1034 507.943C76.3116 513.259 75.642 519.213 75.642 524.64C75.642 526.404 74.5023 533.411 76.1807 534.754C77.5501 535.85 74.2149 546.74 75.1034 548.339C76.2004 550.314 80.2205 554.171 80.6745 556.214C81.5081 559.965 86.1402 565.956 87.1745 573.714C88.1745 581.214 85.2869 580.661 87.1745 589.155C87.9877 592.814 87.2114 599.18 89.1745 602.714C90.6197 605.315 90.5086 615.727 90.6745 618.714C90.9659 623.959 93.6114 630.134 95.1745 635.214C96.8829 640.766 96.1745 638.714 97.1745 643.714C99.1839 653.761 102.016 661.372 94.1745 669.214C89.9634 673.425 81.0673 671.214 75.1745 671.214C70.6251 671.214 79.1452 686.846 78.1745 691.214C77.2281 695.473 79.2524 698.636 76.1745 701.714C74.6745 703.214 66.1745 708.714 61.6745 709.714C58.1099 710.506 53.8201 708.311 52.1745 707.214C49.1745 705.214 45.6745 701.714 45.6745 701.714C45.6745 701.714 39.6745 702.714 37.1745 702.714C34.4302 702.714 31.447 701.709 28.6745 699.214L28.5727 699.122C25.2965 696.174 23.8065 694.833 21.1745 691.214C17.1745 685.714 15.6745 681.714 12.1745 676.214C8.96673 671.173 7.99871 664.443 5.6745 659.214C3.57089 654.481 4.29463 654.258 3.17379 649.214C1.47542 641.571 -0.539595 627.419 0.173257 619.714C0.612617 614.965 1.17461 605.048 1.17407 600.214C1.17352 595.214 2.20867 596.898 2.67358 592.714C3.3202 586.894 2.17785 589.467 3.17358 583.714C4.09458 578.393 15.6452 549.672 20.6736 546.714C20.6736 541.237 20.3139 533.201 20.6745 526.711C22.1745 499.711 23.6745 460.424 28.7817 435.109C30.4969 426.607 30.2155 424.848 33.1745 416.711C34.5619 412.895 34.9533 406.948 35.7839 403.211C36.9631 397.904 38.1918 396.116 39.1745 390.711C40.0285 386.014 42.1745 382.211 43.4835 377.211C44.1244 374.763 47.6133 360.619 49.1745 358.711C51.1445 356.303 54.2747 347.861 55.6745 344.711C58.4919 338.372 58.6745 335.711 62.1745 330.211C66.3673 323.622 65.6745 322.211 70.1745 315.711C71.8369 313.31 75.1012 304.8 82.6745 295.713Z" fill="#181029"/>
<path d="M92.6736 364.214C93.6736 361.214 92.9696 362.846 93.1736 361.214V351.214C93.1736 344.214 93.6736 339.214 93.1736 332.214C92.9158 328.605 92.4001 317.777 92.6736 310.714C92.7009 310.008 89.1539 314.197 86.7621 318.714C85.1736 321.714 83.447 324.359 82.49 327.214C81.5331 330.068 78.4339 334.959 78.1736 335.714C76.9673 339.214 75.1504 342.046 73.6736 345.214C70.4103 352.214 70.9624 352.531 69.1736 356.214C67.3241 360.022 66.866 360.333 65.1736 364.214C62.1736 371.094 62.0399 370.182 60.1736 376.714C58.4845 382.626 54.5894 394.02 53.1736 400.214C51.1261 409.172 49.2428 411.747 47.1736 420.714C45.6736 427.214 44.1736 435.214 42.503 444.868C41.3038 451.798 39.7078 466.769 39.1736 473.714C38.6736 480.214 36.4714 491.498 36.4714 497.714C36.4714 506.145 35.6736 528.496 35.6736 536.714C35.6736 543.214 35.6736 553.214 34.1736 554.214C30.3375 556.771 31.6323 557.098 28.6736 560.714C20.2902 570.96 19.1736 576.714 16.6736 589.714C14.4232 601.416 14.1702 607.626 14.1702 619.594C14.1702 624.695 13.466 630.413 14.9221 635.145C16.266 639.512 16.4026 647.922 17.6736 652.37C19.0806 657.295 20.2213 663.148 22.4752 667.906C24.7239 672.654 27.2872 679.952 31.3954 683.214C35.1736 686.214 39.4743 685.877 38.9144 684.214C36.3169 676.499 34.8393 673.95 34.4372 673.628C33.4947 672.874 32.0096 658.898 31.3954 657.714C28.71 652.535 30.2672 653.714 28.7672 647.62C28.4748 646.431 26.6736 636.448 26.6736 635.145V621.132C26.6736 617.609 33.0454 618.657 31.6736 622.67C31.0792 624.409 34.0302 630.214 35.1736 636.714C36.3169 643.214 36.1116 642.063 36.3169 643.214C36.6736 645.214 36.5928 648.262 37.1736 649.714C38.1736 652.214 38.2169 653.144 38.9144 655.856C40.1477 660.653 40.9355 665.686 42.7422 670.074C44.1632 673.525 46.2384 683.805 48.6736 687.214C51.1736 690.714 50.0641 691.394 52.6736 693.714C53.8415 694.752 57.3499 697.214 58.6736 697.214C59.6736 697.214 61.1587 697.391 62.1736 696.714C63.6736 695.714 65.1567 693.748 65.6736 692.714C66.6736 690.714 66.1736 688.714 65.6736 686.714C65.1736 684.714 65.0479 681.098 64.6141 679.537C64.0376 677.461 62.2632 669.32 61.6736 667.214C59.4319 659.208 58.6736 658.714 57.1736 649.714C56.4442 645.338 53.1736 627.265 53.1736 622.67C53.1736 617.392 50.8781 612.379 53.1736 607.214C54.0007 605.353 55.8498 605.559 57.1736 607.214C58.6541 609.065 62.8474 620.357 63.6736 622.67C65.1923 626.923 65.2759 630.875 67.1736 635.145C69.4458 640.257 70.2651 643.315 71.5559 649.123C72.4317 653.064 72.4516 653.801 74.1736 655.714C76.4236 658.214 80.0378 661.759 81.6736 661.214C83.1736 660.714 86.1736 658.714 86.1736 657.214C86.1736 655.398 85.9003 653.527 85.6736 651.714C85.5835 650.993 85.4678 646.185 85.1736 644.714C84.6736 642.214 84.4263 641.053 84.1736 639.714C83.5071 636.182 82.3978 633.532 81.4989 630.018C80.1459 624.729 79.2813 620.359 77.6736 615.214C76.1396 610.305 76.3851 603.302 75.1736 598.214C74.716 596.292 74.7767 593.571 74.6736 591.714C74.5488 589.469 73.782 581.6 73.6736 579.214C73.57 576.935 72.605 573.919 72.1736 571.714C71.6879 569.231 70.2085 566.621 69.6736 564.214C69.2661 562.38 62.1736 555.626 62.1736 553.714V543.714V535.214V527.714V521.214V516.714V501.714C62.1736 496.988 63.2124 497.627 63.2124 492.939C63.2124 486.428 64.2124 490.815 64.2124 484.439C64.2124 480.714 64.6736 477.55 64.6736 473.714C64.6736 471.213 66.5775 460.712 66.6736 458.214C66.8255 454.263 67.7991 447.149 68.6736 443.214C69.3157 440.325 69.4872 436.631 70.1736 433.714C70.7689 431.184 70.1736 430.714 71.6736 425.214C72.1004 423.649 72.6736 421.214 73.6736 417.714C74.8164 413.714 75.703 408.882 76.1736 407.714C78.6736 401.511 77.4673 403.917 78.1736 402.714C78.6704 401.868 79.0218 398.064 79.3799 397.214C80.1095 395.481 80.872 394.749 81.5331 392.898C82.293 390.771 82.4036 389.026 82.99 386.973C84.1348 382.966 85.8261 377.909 87.6736 374.214C88.6736 372.214 88.4433 370.288 89.1736 369.714C90.9574 368.312 91.7628 366.946 92.6736 364.214Z" fill="#7B5B9B"/>
<path d="M736.094 400.335C735.437 397.636 734.843 397.916 734.63 396.214V390.362C734.63 389.018 734.67 389.093 734.67 382.046C734.67 372.214 734.709 373.046 734.67 363.98C734.657 361.116 734.174 358.714 734.174 352.214C734.174 347.214 733.674 343.326 733.674 341.714V332.714V320.214C733.674 317.38 734.176 308.478 733.674 305.714C733.006 302.043 733.174 298.809 733.174 295.214V277.214C733.174 275.68 738.674 279.678 738.674 281.214C738.674 281.214 739.991 282.621 740.174 283.214C740.761 285.123 741.217 285.785 742.822 287.07C744.186 288.161 745.12 290.985 746.028 292.412C747.174 294.214 748.674 294.694 748.674 294.694C748.674 294.694 750.174 296.714 750.674 297.214C751.174 297.714 752.674 299.214 753.174 300.214C753.683 301.232 756.437 305.648 756.674 306.714C756.877 307.629 758.174 309.214 759.174 311.214C759.98 312.827 761.614 318.211 762.57 319.714C763.986 321.938 764.549 323.214 765.674 325.214C766.496 326.677 768.482 330.922 769.174 332.214C771.317 336.214 770.674 334.714 773.174 339.714C774.288 341.943 775.934 345.31 776.674 347.714C777.457 350.258 777.934 352.752 779.028 355.214C779.766 356.876 780.174 358.714 781.028 361.214C781.578 362.824 783 366.392 783.174 368.214C783.41 370.698 785.674 377.214 786.174 379.714C787.174 384.714 788.458 389.852 789.652 394.626L789.674 394.714C790.174 396.714 790.174 398.214 790.674 400.214C791.249 402.516 791.881 404.336 792.674 406.714C793.174 408.214 793.174 408.873 793.598 410.714C794.022 412.555 795.366 420.868 795.674 422.714C796.174 425.714 797.427 435.601 798.174 438.214C799.459 442.714 799.674 447.579 799.674 458.214C799.674 464.173 801.674 470.228 801.674 476.214C801.674 481.616 803.017 486.719 803.017 492.071V499.709C803.017 501.333 803.174 506.089 803.174 507.714V518.214V526.214V533.214V548.714C803.174 548.714 805.876 552.272 807.174 553.714C808.716 555.427 810.095 559.176 811.174 561.214C812.881 564.439 813.811 567.762 814.674 571.214C815.674 575.214 817.354 578.118 818.174 582.214C818.674 584.714 819.624 587.241 820.174 589.714C820.703 592.095 821.182 595.706 821.182 598.214C821.182 607.916 822.29 615.827 822.29 625.714C822.29 630.674 821.573 637.267 820.674 642.214C819.675 647.706 819.947 650.678 818.135 655.914C814.878 665.322 810.707 673.878 806.674 683.458C805.456 686.35 800.532 697.714 795.674 697.714C794.174 697.714 790.134 701.191 786.989 702.019C785.924 702.299 784.42 703.088 783.427 703.088C782.175 703.088 779.485 701.644 778.174 702.019C774.175 703.162 772.946 707.714 768.674 707.714C755.736 707.714 754.91 706.647 754.576 706.714C748.774 707.88 746.174 694.851 746.174 689.714C746.174 684.774 748.674 681.714 749.674 676.714C750.301 673.575 747.688 673.713 738.253 674.21L738.174 674.214C733.68 674.45 733.168 669.602 729.174 668.714C725.174 665.714 724.174 664.492 724.174 662.492C724.174 657.393 725.722 645.733 726.674 641.214C728.674 631.714 730.517 627.653 732.174 617.714C732.949 613.064 734.174 606.463 734.174 601.714C734.174 596.625 734.174 594.714 734.674 589.214C734.854 587.235 735.674 582.714 735.674 579.714C735.674 577.752 736.409 573.07 736.674 571.214C737.174 567.714 738.674 563.714 739.174 562.214C739.674 560.714 742.974 555.346 743.674 553.714C745.174 550.214 746.186 548.492 747.174 546.714C749.118 543.214 748.174 531.841 748.174 526.714V494.214C748.174 484.089 747.174 487.843 747.174 477.714C747.174 472.197 746.674 469.083 746.674 463.714C746.674 461.267 746.174 459.714 745.674 455.714C745.538 454.624 745.487 453.271 745.174 452.214C744.731 450.72 744.674 448.786 744.674 447.214C744.674 444.734 743.674 442.351 743.674 439.714C743.674 438.038 743.656 435.902 743.174 434.214C742.727 432.649 742.941 431.016 742.356 429.49C741.674 427.714 741.174 424.214 740.674 420.714C740.48 419.356 739.674 415.714 739.174 413.714C738.824 412.317 738.674 412.214 738.174 408.214C738.024 407.013 736.674 402.714 736.094 400.335Z" fill="#181029"/>
<path d="M740.174 364.214L733.674 351.214V333.714C733.674 330.891 734.174 326.536 734.174 323.714V315.214C734.174 313.873 732.674 301.714 735.174 303.714C737.431 305.52 741.448 312.557 743.174 314.714C743.981 315.723 746.923 321.214 747.173 322.214C747.673 324.214 749.042 328.167 750.174 330.714C752.174 335.214 753.109 337.085 754.174 339.214C755.174 341.214 758.173 348.714 758.673 350.214C760.945 357.029 763.674 363.214 766.674 368.714C767.287 369.838 770.973 383.246 772.174 387.45C773.67 392.686 774.737 397.428 776.737 403.428C777.028 404.301 778.871 412.39 778.673 411.714C777.503 407.714 779.59 418.214 780.173 421.714L780.224 422.02C780.767 425.272 782.161 433.636 782.741 438.264C783.213 442.033 783.674 447.214 784.174 450.214C784.585 452.68 785.674 458.028 785.674 459.214C785.674 462.155 786.369 468.294 786.584 471.214C787.174 479.214 787.674 474.229 787.674 480.714C787.674 485.03 788.603 490.039 788.603 494.214V507.214C788.603 510.214 788.674 516.747 788.674 519.214C788.674 523.214 789.673 528.603 789.673 531.214C789.673 536.92 790.674 546.395 790.674 552.214C790.674 553.714 795.674 560.589 800.174 570.714C800.811 572.149 803.69 581.214 804.174 584.214C806.674 599.714 808.212 603.427 808.212 615.31C808.212 620.698 807.174 627.289 807.174 632.214C807.174 637.123 807.375 640.307 806.674 645.214C806.174 648.714 805.876 651.2 805.174 654.714C804.674 657.214 803.906 660.017 803.174 662.214C802.174 665.214 800.034 669.764 797.674 672.714C796.28 674.455 792.917 679.975 791.674 682.214C790.619 684.112 783.77 690.734 785.174 683.714C785.674 681.214 788.607 671.828 789.174 668.714C789.647 666.11 793.383 648.83 793.674 646.214C795.174 632.714 796.174 623.714 793.174 619.714C790.717 616.438 788.674 632.214 788.174 637.214C787.789 641.061 785.777 647.592 785.174 651.214C784.674 654.214 781.104 666.634 780.674 669.214C780.174 672.214 780.073 673.343 778.799 675.918C776.674 680.214 776.691 679.919 775.174 683.714C774.174 686.214 772.174 689.714 769.674 693.214C768.78 694.465 763.174 699.214 759.174 695.214C757.713 693.753 758.026 693.029 758.026 688.847C758.026 685.727 760.674 676.714 762.174 672.714C763.108 670.223 764.469 663.122 765.674 660.714C768.174 655.714 768.448 646.104 769.174 639.214C770.174 629.714 770.674 621.714 770.674 614.714C770.674 611.447 769.931 603.808 765.674 607.214C761.105 610.869 759.754 629.854 758.674 634.714C757.674 639.214 756.078 644.891 754.559 650.207C753.714 653.163 749.432 658.515 747.708 660.671L747.674 660.714C746.414 662.288 741.174 661.714 739.674 660.714C737.593 659.327 737.674 656.214 738.441 650.529C738.772 648.078 741.134 639.714 741.634 637.714C742.384 634.714 743.674 629.714 743.983 627.714C744.228 626.132 744.924 619.214 745.674 617.714C746.674 615.714 746.674 607.714 747.174 605.214C747.555 603.305 748.174 600.942 748.174 598.714C748.174 595.942 748.545 588.898 748.674 586.714C748.83 584.059 748.674 579.214 749.674 572.714C750.012 570.516 755.601 560.786 757.174 559.214C760.174 556.214 762.785 553.214 763.174 546.214C763.499 540.352 762.756 532.133 762.756 526.214C762.756 520.435 763.479 515.71 763.174 510.214C762.879 504.912 763.089 497.527 762.756 491.867C762.431 486.336 761.811 479.362 760.924 473.596C759.789 466.22 759.191 458.358 759.191 450.868C759.191 448.156 760.121 443.094 758.745 440.618C758.031 439.332 757.408 434.829 757.408 433.488C757.408 427.461 754.734 422.071 754.734 416.553C754.734 413.551 752.952 411.129 752.952 408.086C752.952 406.082 751.788 402.004 750.971 400.064C749.83 397.355 748.674 392.714 748.674 390.714C748.674 389.503 747.09 383.788 746.267 383.13C745.647 382.634 744.511 375.727 744.174 374.714C743.674 373.214 742.674 372.714 742.174 370.214C741.474 366.714 740.174 364.214 740.174 364.214Z" fill="#7B5B9B"/>
<path d="M282.046 666.714V617.5H294C298.931 617.5 302.469 617.5 306.019 617.5L313 617.5C325.5 617.5 330.399 617.5 339 617.5H345.674V624.214C345.674 625.622 345.545 627.795 345.674 629.214C345.805 630.664 345.674 631.754 345.674 633.214C345.674 635.333 345.313 636.7 345.674 638.714C346.301 642.214 346.174 646.451 346.174 650.214C346.174 658.893 346.038 667.842 346.038 676.609C346.038 686.323 346.174 696.019 346.174 705.714C346.174 709.381 346.07 713.097 346.174 716.714C346.298 721.068 346.174 722.214 346.174 727.214C346.174 731.245 349.74 730.291 352.174 731.214C354.311 732.025 355.693 732.136 357.823 732.955C358.524 733.225 360.073 734.206 360.612 734.714C361.674 735.714 362.561 737.478 363.674 738.714C365.071 740.267 365.463 742.252 366.18 744.18C367.659 748.153 367.174 753.962 367.174 758.214C367.174 761.553 364.174 762.999 364.174 766.214C364.174 768.169 370.307 775.547 370.307 775.547C370.307 775.547 371.345 778.634 371.571 779.651C371.939 781.308 372.806 782.813 373.168 784.443C374.796 791.768 376.174 798.475 376.174 806.214C376.174 809.452 377.116 812.856 378.004 815.965C378.325 817.087 378.379 818.679 378.869 819.781C379.307 820.765 379.859 822.702 379.979 823.774C380.42 827.748 380.174 831.617 380.174 835.714C380.174 839.027 380.912 840.01 379.174 842.714C377.238 845.725 376.248 847.528 373.046 848.714C369.933 849.867 365.046 853.214 363.546 853.714C361.377 854.437 360.546 854.714 358.046 855.714C356.627 856.282 355.546 856.214 354.046 856.714C352.323 857.289 347.288 858.804 345.546 859.214C342.678 859.889 341.335 859.714 338.835 860.714C336.631 861.596 334.43 862.076 332.046 862.714C329.868 863.298 326.546 864.214 324.257 865.214C320.406 866.896 317.815 865.802 315.546 866.214C313.734 866.544 312.046 866.714 310.046 867.214C309.154 867.437 306.922 868.068 306.046 868.214C305.478 868.309 302.086 869.182 301.546 869.214C298.731 869.38 296.432 870.214 293.546 870.214C291.388 870.214 289.715 870.714 287.546 870.714C285.596 870.714 283.496 871.169 281.546 871.214C279.905 871.252 279.064 871.714 276.546 871.714H273.546C272.162 871.714 269.7 871.65 268.546 871.714C266.909 871.805 264.839 871.714 263.046 871.714H258.546H256.046H254.046H250.546H245.546H238.546H232.546H228.546C227.522 871.714 228.046 871.714 226.546 871.214C226.236 871.111 219.601 870.966 218.261 870.892C217.299 870.838 214.901 870.892 213.546 870.214C213.389 870.136 213.25 870.214 212.046 870.214H210.546H206.546C206.546 870.214 203.234 869.67 201.046 869.214C198.699 868.725 196.327 868.974 194.046 868.214C192.162 867.586 189.473 867.209 187.546 866.714C185.766 866.256 184.947 866.228 183.546 865.714C182.984 865.508 182.546 865.214 180.046 864.714C178 864.305 177.423 864.048 175.659 863.264L175.546 863.214C174.483 862.742 172.947 861.915 172.046 861.214C170.239 859.808 167.031 857.882 165.047 856.714C163.742 855.947 160.498 852.57 160.046 851.214C159.046 848.214 158.546 846.922 158.546 842.214C158.546 840.667 157.708 836.224 158.546 834.714C159.286 833.383 160.066 829.656 160.546 828.214C161.046 826.714 163.546 823.714 165.046 822.214C165.4 821.861 165.046 819.214 165.046 816.214C165.046 810.951 165.652 809.096 167.046 804.214C167.271 803.428 168.727 798.512 169.046 797.714C170.046 795.214 172.551 790.444 173.546 789.214C176.889 785.085 179.366 780.965 183.546 777.714C188.175 774.114 195.546 767.662 198.873 766.762C201.13 766.152 203.546 765.214 205.546 764.214C206.954 763.51 208.046 763.214 209.546 762.714C210.048 762.547 211.004 762.016 211.499 761.741L211.546 761.714C211.841 761.551 213.486 761.244 214.546 760.714C215.546 760.214 219.546 759.214 221.546 758.714C222.031 758.593 224.046 759.214 225.046 758.714C225.546 758.464 228.501 757.423 230.401 757C232.098 756.623 237.348 756.714 239.046 756.714H245.046H250.546C251.407 756.714 257.469 757.436 258.046 756.714C258.472 756.182 258.546 755.714 258.046 753.896C257.739 752.78 257.546 749.714 257.546 748.714C257.546 745.398 258.046 743.714 259.046 739.714C259.43 738.18 260.85 735.599 262.546 733.714C264.126 731.959 265.781 730.384 267.804 729.485C270.054 728.485 270.546 727.714 274.046 727.214C274.628 727.131 281.046 726.214 281.046 725.714V716.214V697.714C281.046 687.465 282.046 676.968 282.046 666.714Z" fill="#181029"/>
<path d="M173.673 840.107C173.673 838.714 175.781 837.714 177.781 838.214C180.201 838.819 179.68 839.33 182.174 839.714C185.042 840.155 185.819 840.299 188.674 840.714C192.153 841.22 194.203 842.115 197.674 842.214C199.685 842.272 203.996 843.23 206.042 843.685L206.174 843.714C208.372 844.203 211.389 844.515 213.674 844.714C221.047 845.355 228.243 847.214 235.674 847.214C244.6 847.214 253.674 846.214 263.674 846.214C265.674 846.214 283.674 844.939 291.174 844.714C293.883 844.633 297.008 844.306 299.674 844.214C301.47 844.152 302.174 844.214 304.174 843.714C305.01 843.505 306.769 843.022 307.623 843.022C309.103 843.022 310.27 842.628 311.674 842.214C314.147 841.484 317.304 840.892 319.896 840.82C322.803 840.74 325.642 839.435 328.519 838.853C331.674 838.214 335.674 836.714 337.674 836.214C340.624 835.476 345.174 834.714 345.95 834.449C346.257 834.344 349.174 833.214 349.174 833.214C349.174 833.214 351.332 832.982 352.674 832.714C355.174 832.214 355.478 831.874 356.174 831.58C357.823 830.883 357.974 830.814 359.174 830.214C361.174 829.214 361.308 829.056 362.674 828.714C364.674 828.214 365.674 828.499 365.674 828.714C365.674 830.021 366.174 831.449 366.174 834.449C366.174 835.822 364.966 836.807 364.174 837.214C360.575 839.065 355.674 840.714 353.174 841.714C351.916 842.217 349.845 843.128 348.674 843.714C345.674 845.214 339.62 845.522 335.267 846.61C328.579 848.282 317.461 851.357 310.674 852.714C305.674 853.714 306.235 853.637 301.588 854.113C299.583 854.318 296.698 854.714 295.174 854.714C293.805 854.714 292.512 854.852 291.174 855.05C289.835 855.249 283.937 856.192 280.174 856.192C273.706 856.192 263.5 856.6 255.174 856.6H241.284C236.487 856.6 231.429 856.214 226.674 856.214C223.674 856.214 221.174 855.714 220.174 855.714C218.258 855.714 215.174 855.173 214.174 855.173H209.433C207.469 855.173 203.674 854.215 202.933 854.215C199.828 854.215 198.409 852.753 195.174 852.214C192.713 851.804 189.674 850.714 187.422 849.994C186.032 849.55 184.674 849.214 183.174 848.714C181.681 848.217 179.117 848.046 177.781 847.214C176.174 846.214 175.174 846.714 173.674 844.214C173.423 843.797 173.673 842.419 173.673 840.107Z" fill="#7B5B9B"/>
<path d="M284.674 741.214C287.127 741.704 290.006 743.319 292.057 743.379C292.135 743.382 292.211 743.39 292.287 743.408C295.788 744.246 301.063 745.714 303.674 745.714C305.174 745.714 304.923 746.714 306.674 746.714C307.659 746.714 309.191 747.272 310.174 747.214C311.157 747.156 316.231 747.214 317.174 747.214H322.674C323.174 747.214 326.638 747.714 330.174 747.714C334.674 747.714 334.848 746.714 338.174 746.714C340.174 746.714 345.023 745.627 346.674 745.214C347.955 744.894 350.12 744.69 351.512 745.036C351.874 745.126 353.507 747.38 353.674 747.714C354.174 748.714 354.743 749.037 354.674 750.214C354.593 751.592 354.853 755.231 353.674 756.214C350.674 758.714 352.209 758.621 349.674 760.029C347.68 761.137 344.174 762.398 341.674 763.214C339.823 763.817 338.174 763.714 336.174 764.214C330.661 765.592 326.674 765.714 320.674 766.214C318.182 766.421 314.777 766.214 312.674 766.214H305.174C304.118 766.214 301.235 765.214 299.174 765.214C298.174 765.214 294.307 764.365 293.674 764.214C292.395 763.909 288.5 763.029 287.174 762.714C283.495 761.84 280.174 760.214 276.674 759.214C273.917 758.426 271.174 751.719 271.174 748.714C271.174 747.557 273.805 739.98 275.674 740.214C279.674 740.714 281.001 740.479 284.674 741.214Z" fill="#7B5B9B"/>
<path d="M332.159 624.477C332.159 623.736 332.105 621.076 332.105 621.153L331.246 621.153C330.638 621.153 330.243 621.214 329.674 621.214H329.669C328.554 621.214 327.672 621.214 326.677 621.153C325.125 621.058 323.342 621.153 321.766 621.153H319.173H315.177C312.217 621.153 308.651 621.367 305.677 621.367C303.093 621.367 301.712 621.153 299.177 621.153L296.677 621.153C296.677 621.153 296.664 622.922 296.677 623.214C296.778 625.538 296.677 627.888 296.677 630.215V643.214C296.677 648.113 296.177 653.214 296.177 658.714V663.214V667.714V674.714V683.214V686.714C296.177 687.642 296.438 688.332 296.177 689.214C295.936 690.027 295.677 693.214 295.677 694.714V702.214V714.214C295.677 717.469 295.433 717.192 295.433 720.478C295.433 721.922 295.177 722.214 295.177 722.214L295.177 723.714V725.214C295.177 726.149 295.173 727.763 295.173 728.714C295.173 729.256 295.174 730.214 295.673 730.214H296.674C296.674 730.214 298.25 730.591 298.674 730.714C299.993 731.099 300.358 731.258 301.674 731.714C302.956 732.159 303.174 732.214 304.674 732.714C305.622 733.03 308.416 733.714 309.174 733.714C309.674 733.714 311.674 734.128 311.674 734.128L312.674 734.214C312.674 734.214 313.219 734.471 313.674 734.557C315.212 734.847 316.87 734.985 318.443 734.985C319.674 734.985 320.375 734.92 321.72 735.098C323.174 735.29 324.069 735.05 325.174 734.985C325.765 734.95 328.316 735.545 328.674 735.098C329.09 734.577 330.691 735.024 331.347 734.985C332.236 734.933 333.119 734.518 333.365 733.655C333.644 732.679 333.376 731.236 333.376 730.217V726.26V721.086C333.376 719.445 333.092 717.847 333.174 716.214C333.27 714.289 333.174 712.585 333.174 710.636C333.174 709.147 332.971 707.726 332.971 706.262C332.971 702.772 332.768 699.659 332.768 696.214V684.214V673.256C332.768 669.755 332.565 666.183 332.565 662.648V656.714V651.714C332.565 648.658 332.159 645.214 332.159 642.214V633.779V624.477Z" fill="#7B5B9B"/>
<path d="M354.674 778.214C353.734 777.17 351.174 773.714 351.174 773.714C351.174 773.714 345.608 774.871 344.174 774.871C342.674 774.871 335.174 775.714 334.674 775.714C334.174 775.714 333.174 776.214 331.674 776.214C330.209 776.214 329.263 777.195 327.886 777.775C327.01 778.144 325.674 778.58 324.549 778.756C322.438 779.088 320.527 779.463 318.387 779.463H314.174C312.229 779.463 309.174 779.714 307.174 779.463C305.836 779.295 304.674 778.756 303.174 778.756C302.143 778.756 301.674 778.58 300.174 778.58C299.232 778.58 297.617 777.775 296.674 777.775C295.827 777.775 294.55 777.214 293.674 777.214C288.834 777.214 297.594 784.366 297.674 785.714C297.808 788.005 293.006 785.452 292.174 785.214C290.375 784.7 287.353 782.674 285.674 781.714C284.023 780.771 280.674 778.873 279.174 777.873C276.682 776.212 274.334 775.627 272.174 774.714C271.104 774.262 269.174 773.714 268.174 773.214C266.75 772.502 265.674 772.714 264.174 772.214C262.603 771.691 260.775 771.341 259.174 770.985C254.874 770.03 248.503 770.985 244.088 770.985C241.382 770.985 238.808 771.214 236.174 771.214C234.423 771.214 233.174 771.714 231.674 772.045C230.524 772.298 229.061 772.214 227.674 772.214C226.025 772.214 223.962 772.946 222.674 773.124C220.522 773.422 218.308 774.595 216.174 774.714C214.196 774.824 212.809 775.896 211.174 776.714C209.174 777.714 206.564 778.866 204.427 779.816C202.464 780.689 201.125 782.814 199.128 783.702C197.535 784.41 196.083 786.139 195.066 787.411C193.918 788.846 192.557 790.253 191.259 791.552C190.024 792.786 189.207 794.702 187.922 795.987C186.662 797.247 185.921 799.637 184.645 800.658C183.265 801.761 182.179 803.971 181.674 805.714C181.155 807.502 180.174 809.214 179.523 811.255C178.886 813.253 178.674 814.214 178.385 816.714C178.094 819.23 178.385 821.137 178.385 823.214L178.385 825.816C178.385 827.214 178.815 828.148 179.523 828.714C180.015 829.108 182.552 829.576 183.174 829.714C184.601 830.031 185.717 830.39 187.174 830.714C189.621 831.258 192.686 832.161 195.174 832.714C198.893 833.541 201.963 835.073 205.752 835.705C208.752 836.205 209.164 835.378 211.674 836.214C213.174 836.714 214.835 836.968 216.614 836.968C217.429 836.968 222.174 837.214 223.174 837.714C224.068 838.161 227.841 837.714 228.674 837.714H233.174H241.174H247.674H255.174H267.834C270.174 837.714 273.878 837.056 276.155 836.752C278.224 836.477 280.386 836.335 282.474 836.335C283.383 836.335 286.134 836.788 286.89 836.159C287.243 835.864 289.257 835.629 289.735 835.629H293.268C295.562 835.629 297.387 835.047 299.626 834.922C303.821 834.689 307.718 833.04 311.99 832.803C316.27 832.565 320.737 831.339 324.674 830.214C325.816 829.888 327.519 830.003 328.674 829.714C330.674 829.214 331.662 828.974 333.263 828.917C334.284 828.881 335.454 828.264 336.364 828.211C337.121 828.166 338.479 828.023 339.174 827.714C341.001 826.902 343.609 826.267 345.391 825.757C347.14 825.258 348.696 824.46 350.336 823.991C352.076 823.494 353.776 823.059 355.596 822.539C356.531 822.272 357.859 822.196 358.795 821.676C359.528 821.268 360.174 821.214 360.174 821.214L361.174 820.214C361.174 820.214 361.797 819.756 361.797 818.714V811.714C361.797 808.758 362.318 804.078 361.797 801.214C361.405 799.058 361.797 798.214 360.674 795.214C360.172 793.874 358.876 790.606 358.795 789.214C358.686 787.364 357.382 785.486 357.174 783.714C357.015 782.363 355.538 779.174 354.674 778.214Z" fill="#7B5B9B"/>
<path d="M103.5 34.5C107.421 29.2715 111.905 24.8244 118.5 24C118.5 21.3896 124.852 20.7068 126.5 20C129.998 18.5 130.485 18.3031 134.5 17.5C139.5 16.5 136.167 16.5 141 16.5C148.5 16.5 143.299 16.3337 150.5 16.3337H161H170H197.501C216.139 16.3337 215.987 14.635 234.501 14.635C250.501 14.635 280.529 13.8001 292.001 12.9997C313.501 11.4997 330.009 10.2918 353.501 10.4997C368.69 10.6341 387.914 8.99972 403.001 8.99972H427.501C447.076 8.99972 452.93 7.02818 472.573 7.02818C487.36 7.02818 502.664 5.49972 517.001 5.49972H540.501C545.856 5.49972 562.749 4.26371 567.501 3.99972C584.977 3.02881 587.617 2.99972 605 2.99972C615.225 2.99972 623.679 1.99972 634.5 1.99972C639.16 1.99972 648.8 0.999722 653.5 0.999722C658 0.999722 664.463 -0.000255333 668 -0.000244141C679 -0.000209331 679.063 0.944946 682 2.49988C687.138 5.21975 685.5 7.44339 685.5 12.4999C685.5 18.3875 686.5 28.2979 686.5 28.2979C686.5 28.2979 692.341 28.9999 697.5 28.9999H714C719.726 28.9999 725.73 29.1579 731.455 29.1579C733.455 29.1579 736.5 32.9731 736.5 37.4999C736.5 50.8069 736.375 64.3739 736.375 77.484C736.375 103.781 737.5 129.986 737.5 155.916V195.132C737.5 210.323 736.375 226.097 736.375 240.995C736.375 264.449 733.47 288.96 733.643 313.5C733.717 324 735.046 340 735.046 350.384C735.046 357.75 734.629 365.501 735.046 373C735.328 378.068 734.764 379.497 735.046 384.565C735.679 395.956 733.717 406.572 733.717 417.799C733.717 423.216 732.461 428.176 732.461 433.16V452.5V468.5V489V522C732.461 532.256 731 542.647 731 553.5C731 558.796 732.44 572.46 731 577.5C729.87 581.458 731 591.799 731 596.5C731 603.5 726.829 619.009 718 619.5C707.798 620.067 707.49 619.5 696.5 619.5C672.903 619.5 650 618.5 626.5 618.5H568.501H518.001H478.001H399.001H361.501C356.607 618.5 348.032 618.467 343.091 618.467C339.625 618.467 332.235 618.5 328.501 618.5C324.079 618.5 317.501 618.877 312.35 618.877C306.462 618.877 271.501 619.59 271.501 618.467V604V593.5H258.501H240.001H205.501V619.5H193.501H186.501C181.491 619.5 176.501 619.5 172.001 619.861C167.992 620.183 156.501 619.861 153.001 619.861H136.001C128.775 619.861 115.501 615.5 112.501 612.5C109.127 609.127 100.64 601.639 97.0007 598C95.0005 596 91.0004 586.5 91.0004 580.5C91.0004 569.066 91.5964 556.829 91.0002 545.5C90.7635 541.003 91.0004 536.027 91.0004 531.5V514C91.0004 505.053 92.0002 499.54 92.0002 490.5C92.0002 484.904 91.0002 480.212 91.0002 475C91.0002 467.314 92.0001 458 92.0001 450.5C92.0001 441.444 92.2104 429.253 92.0001 420C91.8195 412.057 92.5 405.5 92.5 396.5C92.5 374.238 93 352.254 93 330C93 304.255 94 281.852 94 256.5C94 244.979 94.5 234.021 94.5 222.5V202.5C94.5 199.226 94.6633 188.698 95 185.5C96 176 96 161.737 96 154.5C96 144.107 96.9557 133.014 96.9557 123.347V88.9999C96.9557 83.0596 98.3194 78.2483 98 72.4999C97.6806 66.7514 98 57.2894 98 51.9999C98 42.5343 102 36.5 103.5 34.5Z" fill="#181029"/>
<path d="M145.817 59L145.817 32.5001H176C184.624 32.5001 196.314 32.9137 205 32.5001C257.5 30.0001 302.946 27.0691 353.5 27.0691H371.5C377.5 27.0691 415.5 25.6618 415.5 25.6618C415.5 25.6618 433.994 24.5001 444 24.5001C485.53 24.5001 494.41 21.5 536 21.5C546.84 21.5 583.559 19 594.5 19C600.456 19 610.553 18 616.5 18H643C647 18 672 17 672 17C672 17 672.058 24.0209 672 25C671.612 31.596 672 34.39 672 41C672 71.3679 668.891 104.279 668.891 134.5C668.891 145.06 669.27 155.904 668.891 166.5C668.326 182.339 668.891 193 668.891 210.423C668.891 220.755 666.83 232.341 666.649 242.691C666.45 254.04 668.891 269.162 668.891 280.5V320.5C668.891 357.855 665.527 381.645 665.527 419V469.748V507V520V547.5V561.5V580.692H654H633.5C628.998 580.692 624.938 580.551 620 580.692C616.421 580.794 613.182 580.692 609.464 580.692H570H520.5H477.5H441H389.5H334.5H301.5H269.5H230.5H201.5C196.401 580.692 183.605 580.443 179.5 580.692C174.684 580.984 169.946 580.494 165 580.692C161.432 580.835 159.193 580.692 155.5 580.692H145.817V566L145.817 522.5C145.817 498.254 144.696 473.835 144.696 449.5C144.696 441.548 145.817 431.78 145.817 424V403.5C145.817 397.157 145.257 384.5 145.817 377.5C146.378 370.5 145.817 365.045 145.817 359V324.5V280V246.5V225.5V209.5C145.817 209.5 145.278 200.041 145.817 196C146.55 190.501 145.817 182.131 145.817 176.5V154.5V115V93V59Z" fill="#7B5B9B"/>
<path d="M140 45.0001C140 41.2202 140.988 33.844 140 34C130.5 35.5 132.896 35.6561 122.5 39C115.5 41.2516 113.697 48.7614 113.5 52.5C113.258 57.0997 113 56.8906 113 61C113 65.5 112.5 68.3906 112.5 73V85C112.5 90.3103 112.624 91.5088 112.326 97C112 103 112 102.666 112 108.5C112 114.123 111.5 125.034 111.5 131V149.5C111.5 154.24 110.5 160.76 110.5 165.5V184.5V197C110.5 200.624 110.5 208 109.985 212.715C109.559 216.614 109.985 223.339 109.985 227.5C109.985 234.39 110.222 239.609 109.985 246.5C109.041 273.878 109 306.475 109 334C109 347.011 108 361.989 108 375C108 387.154 108.112 396.923 108.112 409.401C108.112 424.076 106.5 440.934 106.5 455.5V485C106.5 496.685 106 510.212 106 521.5V538.5V551.5L106 565.5L106 581H113.5H136.5V563.5V521.5V471C136.5 457.963 135.688 445.885 136.5 434.5C137.213 424.5 136.5 416 136.5 406.5C136.5 401.944 136.737 394.738 136.5 390C136.393 387.868 136.5 385.451 136.5 383V364.5V346V312V282C136.5 262.838 138.66 243.138 138.66 223.834V186.5V169.995C138.66 158.715 139 148.691 139 137.5C139 128.292 140.038 118.138 139.5 109C139.035 101.1 140 90.9646 140 82.5L140 56.5001V45.0001Z" fill="#7B5B9B"/>
<path d="M115.914 597.389C114.986 596.632 111.317 593.25 113.329 592.998L120 592.998L124.504 592.998H129.5C132 592.998 138.173 592.998 140.5 592.998C149 593 152.912 592.998 162 592.998L169 592.998H182H190H194V594.498V596.998V600.998V604.926H190.786H184H174C164.439 604.926 158 604.5 148 604.5C144.213 604.5 135 603.891 135.5 604C136.799 604.283 132.272 603.571 131 603.5C128.731 603.374 126.703 602.16 124.504 601.5C121.797 600.688 118.5 599.5 115.914 597.389Z" fill="#7B5B9B"/>
<path d="M273.879 604V593C273.879 593 360 592.5 362 592.5C379.492 592.5 436.508 593 454 593H483.5L485.902 593C492.459 593 498.493 593 504.5 593C508.31 593 512.987 593 516.5 593L579.5 593H613H634H671L675.5 596L680.5 599.5L686.5 604H681.5H669H649H600H545.5H506H468.5C457.745 604 445.787 604.276 435 604C425.491 603.756 414.082 604 404.5 604C395.013 604 384.5 604.036 375 604C356.123 603.928 338.385 604 319.5 604H286H273.879Z" fill="#7B5B9B"/>
<path d="M684.01 72.4999V44.8328L703.009 44.8328L723.51 44.8328V53.5V67.5C723.51 91.8911 722.51 107.708 722.51 132C722.51 146.878 722.01 163.622 722.01 178.5C722.01 194.89 721 211.228 721 227.5C721 234.158 720.5 242.526 720.5 249V265.5V303.5V343.5C720.5 348.263 719.5 361 719.5 361V380.5C719.5 404.015 718.5 421.798 718.5 445C718.5 463.097 718 484.209 718 502C718 514.3 716.51 525.7 716.51 538V557.5V569.5C716.51 569.5 715.319 582.509 715.319 588.478V605.5C715.319 605.5 709.78 604.008 705 601.883C700.52 599.892 698.229 598.406 693.717 596.4C683.337 591.787 677.262 588.478 678.01 588.478C678.01 588.478 679.045 566.901 678.757 562C678.164 551.919 678.757 538.098 678.757 528L678.757 489.5C678.757 482.231 678.602 481.267 678.757 474C678.902 467.179 678.501 467.145 678.757 460.5C678.997 454.247 678.757 447.676 678.757 441.196V384.327C678.757 370.486 680.01 358.687 680.01 345C680.01 332.1 680.51 326.541 680.51 314V305L681.01 293.5L682.01 275V264.5V245.726C682.01 223.162 683.01 223.773 683.01 201V169.5C683.01 167.26 683.51 142.284 683.51 140V121.5C683.51 116.228 683.214 108.317 683.51 103C684.095 92.4591 684.01 83.5026 684.01 72.4999Z" fill="#7B5B9B"/>
<path d="M260.796 132.41C260.796 132.41 264.855 129.528 265.796 129.41C269.296 126.91 273.868 125.714 276.674 125.714C279.268 125.714 281.529 124.621 284.174 124.621L292.174 124.621C296.865 124.621 300.223 124.23 304.674 125.714C308.177 126.882 310.785 128.405 314.174 129.91C318.365 131.773 317.62 132.134 321.674 134.714C322.99 135.552 327.583 139.623 328.674 140.714C330.41 142.45 330.489 143.029 332.174 144.714C334.767 147.308 333.42 146.278 335.174 148.714C336.928 151.15 335.73 149.549 337.174 151.714C338.012 152.972 339.18 154.289 339.674 155.714C339.934 156.468 341.747 161.074 342.174 161.714C342.786 162.632 344.824 166.596 345.174 167.714C345.949 170.195 346.548 171.336 346.674 172.214C347.174 175.714 347.685 175.491 348.174 177.714C349.931 185.714 350.341 193.214 351.174 200.214C351.58 203.629 352.144 206.744 351.674 210.214C351.164 213.969 350.298 217.018 350.174 222.214C349.998 229.53 348.126 232.41 346.796 237.41C345.559 242.063 343.296 245.91 340.801 250.246L340.676 250.461C339.092 253.214 337.398 256.157 335.296 258.91C334.214 260.329 332.583 261.485 331.674 263.214C330.21 265.995 326.685 268.408 324.174 270.214C319.674 273.451 318.392 275.128 313.296 276.865C307.296 278.91 306.792 279.559 301.292 281.471C297.674 282.729 295.296 282.559 290.792 282.559C288.222 282.559 283.882 282.021 281.296 281.823C280.037 281.726 276.796 281.471 275.796 280.91C274.054 279.933 275.796 280.91 272.796 279.91C271.606 279.514 271.239 279.617 270.228 278.91C268.796 277.91 266.85 277.231 265.296 276.41C263.198 275.303 261.302 273.873 259.296 272.648L259.19 272.582C257.556 271.584 256.235 270.777 254.796 269.41C253.326 268.014 253.296 267.91 251.267 266.41C250.47 265.822 249.566 264.07 248.796 263.41C247.659 262.436 246.792 261.059 245.796 259.91C244.243 258.118 243.573 256.396 242.296 254.41C240.055 250.923 239.997 251.151 238.296 247.41C235.796 241.91 237.296 244.91 234.796 238.91C234.16 237.382 232.296 233.91 231.797 232.41L231.795 232.406C231.358 231.095 230.796 229.408 230.296 226.91C229.592 223.389 229.296 220.446 229.296 216.91C229.296 212.91 228.796 211.91 228.296 207.41C228.097 205.621 228.296 200.025 228.296 198.246C228.296 197.336 228.021 193.292 228.296 192.41C228.983 190.212 228.97 187.689 229.296 185.41C229.51 183.909 229.856 181.789 230.622 180.41C231.4 179.01 231.016 176.884 231.796 175.41C232.528 174.027 233.674 170.214 234.174 168.714C234.639 167.318 235.031 165.499 235.674 164.214C236.862 161.837 238.318 159.546 239.502 157.178C241.944 152.293 245.506 148.098 248.796 143.711C250.977 140.803 253.229 138.583 255.796 136.016C256.546 135.266 260.796 132.41 260.796 132.41Z" fill="#251A38"/>
<path d="M271.796 139.285C272.746 138.782 275.05 137.347 276.083 137.347C277.36 136.709 278.699 136.222 280.107 136.021C280.781 135.925 281.467 135.529 282.104 135.261C283.231 134.786 283.065 135.877 284.174 135.261C285.066 134.765 284.843 135.395 288.674 135.261C289.598 135.228 292.321 134.863 293.174 135.261C295.162 136.189 297.42 135.546 299.556 136.021C301.29 136.406 303.293 137.518 305.055 137.616C305.93 137.664 306.636 138.182 307.47 138.42C308.097 138.6 308.481 139.011 309.049 139.285C310.432 139.95 311.281 141.046 312.674 141.714C313.924 142.314 315.31 143.634 316.674 143.714C317.484 143.762 319.695 146.708 320.174 147.213C321.696 148.82 324.174 151.214 324.174 151.214C324.174 151.214 326.201 152.548 326.516 152.966C327.06 153.685 327.119 154.542 327.589 155.261C328.142 156.107 328.369 157.203 329.05 157.884C330.177 159.011 331.165 160.468 331.796 161.91C332.167 162.759 333.223 164.91 333.223 165.91C333.223 166.91 334.676 168.546 334.796 168.91C335.612 171.379 336.11 172.402 336.817 173.855L336.844 173.91C337.575 175.41 337.986 176.058 338.051 176.91C338.095 177.478 338.32 178.728 338.32 179.33C338.32 179.701 338.671 181.077 338.856 181.41C339.415 182.417 339.474 184.323 339.796 185.41C340.209 186.804 341.112 189.808 341.296 190.91C341.796 193.91 341.296 195.41 341.296 196.41C341.296 200.739 340.773 205.875 340.796 209.41C340.84 215.972 341.113 220.714 340.174 223.214C339.113 226.034 339.174 226.214 338.174 228.214C337.229 230.104 337.526 229.725 336.674 231.714C335.174 235.214 333.325 239.06 332.15 242.878C331.663 244.46 330.548 246.365 329.795 247.871C329.007 249.447 328.018 250.999 326.784 252.163C323.473 255.29 320.374 259.013 317.174 262.214C315.811 263.577 313.746 263.86 312.358 265.248C311.696 265.91 310.814 266.61 310.018 267.052C309.188 267.513 307.805 268.476 306.933 268.527C305.539 268.609 303.576 269.778 302.164 270.196C300.804 270.599 299.339 270.428 297.931 270.822C296.338 271.268 294.528 271.661 292.864 271.746C291.726 271.805 290.471 271.677 289.296 271.746C288.643 271.785 289.099 272.283 287.484 272.283C285.296 272.283 282.585 272.153 280.674 271.746C278.146 271.209 275.995 269.466 273.49 269.108C271.788 268.865 267.972 266.403 266.674 265.248C264.29 263.13 263.149 262.139 260.674 260.214C259.316 259.158 257.919 257.835 256.674 256.714C255.398 255.566 252.707 253.092 251.674 251.714C249.761 249.164 249.879 246.09 248.243 243.311C247.895 242.717 247.396 242.208 247.111 241.567C246.917 241.13 246.515 240.732 246.366 240.3C246.223 239.888 246.415 239.418 246.246 239.018C244.602 235.113 242.649 230.946 241.731 226.812C241.442 225.515 240.532 223.939 240.002 222.774C239.413 221.478 239.279 219.714 239.279 218.371C239.279 217.434 238.441 216.282 238.392 215.41C238.352 214.682 238.548 214.111 238.392 213.41C237.998 211.634 238.392 210.767 238.392 208.91V204.91C238.392 204.129 238.676 204.91 238.392 201.91C238.273 200.649 238.392 198.41 238.392 198.41C238.392 198.41 238.195 196.435 238.526 194.91C238.734 193.953 238.908 192.284 239.296 191.41C239.632 190.655 239.784 189.172 240.002 188.41C240.173 187.81 240.002 186.605 240.002 185.91C240.002 184.637 240.365 182.772 240.881 181.61C241.561 180.082 241.829 178.239 242.342 176.573C242.796 175.097 243.574 173.854 243.907 172.355C244.226 170.918 244.633 169.413 245.233 168.063C245.873 166.624 246.869 165.148 247.647 163.786C248.363 162.533 248.768 161.085 249.796 159.91C250.823 158.737 251.274 157.546 252.296 156.41C253.107 155.51 254.157 153.989 254.796 152.966C256.143 150.811 258.377 148.851 260.196 147.213C262.664 144.992 265.817 142.384 268.796 140.894C270.062 140.262 270.601 139.917 271.796 139.285Z" fill="white"/>
<path d="M299.8 172.456C301.434 172.641 302.063 172.456 303.708 172.456C304.189 172.456 305.221 172.306 305.662 172.456C307.027 172.92 305.394 171.728 306.638 172.456C307.203 172.786 308.023 172.83 308.592 173.175C308.84 173.325 309.776 173.103 310.058 173.175C310.89 173.387 312.011 174.165 312.011 174.165C312.011 174.165 313.161 175.014 313.477 175.141C314.458 175.534 315.919 176.439 315.919 176.439C315.919 176.439 317.109 177.241 317.873 177.63C319.038 178.225 319.107 178.461 319.946 179.569C320.226 179.94 320.913 181.089 321.288 181.365C321.708 181.674 321.491 181.787 321.9 182.112C322.499 182.587 323.568 183.393 323.767 184.103C323.966 184.813 325.278 185.86 325.534 186.591C325.753 187.217 325.832 187.912 326.125 188.51C326.387 189.042 326.583 189.718 326.65 190.33C326.77 191.427 327.621 192.476 327.621 193.601C327.621 194.425 328.126 195.195 328.164 195.974C328.236 197.449 329.141 198.81 329.141 200.236C329.141 201.634 329.261 202.921 329.039 204.281C328.809 205.687 329.182 207.204 328.87 208.604C328.702 209.358 328.816 210.231 328.816 211.002C328.816 211.747 328.719 212.477 328.707 213.216C328.664 215.885 328.244 218.504 327.844 221.154C327.52 223.306 326.935 225.442 326.511 227.604C326.287 228.749 326.051 229.984 325.691 231.084C325.54 231.547 325.073 232.424 324.913 232.879C324.709 233.461 324.402 233.778 324.31 234.391C324.184 235.223 323.085 236.075 322.877 236.881C322.721 237.485 321.813 239.022 321.411 239.483C321.026 239.926 320.815 240.9 320.435 241.362C319.545 242.444 320.49 242.113 319.526 243.123C318.862 243.82 317.492 244.993 317.016 245.843C316.445 246.861 315.379 247.258 314.573 248.079C314.141 248.52 312.131 249.259 311.643 249.543C310.563 250.17 311.413 249.743 310.546 250.627C310.058 251.125 308.104 252.12 306.639 252.12H302.731C301.789 252.12 298.273 252.331 297.358 252.12C294.865 251.546 293.819 250.93 291.985 249.631C291.157 249.044 290.788 248.618 290.151 248.079C289.265 247.329 288.673 246.852 288.198 246.61C287.44 246.223 286.937 244.803 286.244 244.349C285.441 243.823 285.444 243.036 284.779 242.358C284.288 241.858 283.287 240.008 282.825 239.483C281.848 238.375 282.336 238.375 281.359 236.507C280.892 235.614 279.926 234.461 279.894 233.396C279.858 232.198 279.085 232.601 278.917 231.404C278.683 229.733 277.879 228.579 277.593 226.923C277.317 225.33 277.498 224.04 277.243 222.442C277.05 221.232 277.332 220.255 277.243 218.459C277.177 217.148 277.243 216.286 277.243 214.973C277.243 213.317 277.272 212.481 277.33 210.855L277.332 210.794C277.371 209.705 277.664 209.577 277.821 208.305C277.955 207.208 277.821 206.811 277.821 205.318C277.821 203.445 277.947 205.171 278.309 203.326C278.602 201.832 278.797 201.832 278.797 200.836C278.797 200.145 279.035 199.343 279.286 198.347C279.473 197.605 279.446 196.527 279.774 195.857L280.751 193.866C281.24 192.87 281.1 193.011 281.24 192.372C281.279 192.189 281.602 190.526 281.728 190.38C281.978 190.093 282.475 188.67 282.705 188.389C282.981 188.051 283.024 187.782 283.193 187.393C283.363 187.003 283.971 185.767 284.17 185.401C284.546 184.711 285.156 184.012 285.636 183.41C286.03 182.915 287.65 180.923 287.101 181.418C286.322 182.121 288.072 180.421 288.566 179.924C289.09 179.399 289.167 179.334 289.15 179.361C289.21 179.293 289.328 179.163 289.543 178.929C290.069 178.355 291.497 177.435 291.497 177.435C291.497 177.435 292.78 176.62 293.149 176.244C293.771 175.61 294.129 175.31 294.916 174.945C295.549 174.652 296.81 173.909 297.358 173.452C297.628 173.373 299.495 172.421 299.8 172.456Z" fill="#251A38"/>
<path d="M308.423 190.405C308.697 190.305 308.628 190.19 308.919 190.19C309.101 190.099 309.667 189.588 309.883 189.492C310.109 189.392 310.394 189.319 310.633 189.266C311.223 189.135 312.006 189.278 312.561 189.401C313.608 189.634 314.708 190.052 315.667 190.532C316.102 190.749 316.494 191.036 316.92 191.261C317.667 191.657 318.252 192.095 318.769 192.753C319.029 193.084 319.235 193.504 319.578 193.761C319.811 193.936 320.088 194.136 320.268 194.439C320.451 194.745 320.879 195.373 320.879 195.373C320.879 195.373 321.295 195.891 321.308 196.117C321.331 196.528 321.635 196.468 321.712 196.873C321.808 197.373 321.818 198.153 321.935 198.489C322.108 198.99 321.935 200.344 321.935 200.873C321.935 201.59 322.089 201.18 321.935 201.873C321.865 202.185 322.018 202.303 321.935 202.619C321.844 202.962 321.46 203.669 321.308 203.989C320.951 204.739 320.938 205.009 320.879 205.569C320.856 205.787 320.39 206.356 320.268 206.542C320.107 206.789 320.054 207.114 319.915 207.363C319.709 207.736 319.26 208.305 318.916 208.573C318.726 208.721 318.575 208.896 318.396 209.057C318.266 209.174 317.943 209.364 317.88 209.505C317.646 210.032 316.678 210.346 316.234 210.652C315.909 210.875 315.606 211.106 315.274 211.29C315.07 211.404 314.686 211.326 314.453 211.326C313.692 211.326 312.798 211.004 312.065 210.81C310.89 210.499 309.869 209.891 308.919 209.152C308.55 208.865 308.237 208.506 307.9 208.168C307.654 207.922 307.357 207.522 307.071 207.331C306.861 207.191 306.645 206.574 306.384 206.542C306.215 206.521 305.913 205.854 305.813 205.701C305.708 205.54 305.456 205.258 305.456 205.078C305.456 204.84 305.275 204.462 305.226 204.201C305.162 203.855 304.385 202.709 304.385 202.373C304.385 201.86 304.414 202.369 304.385 201.873C304.342 201.141 304.385 201.595 304.385 200.873C304.385 200.242 304.065 200.036 304.212 199.373C304.333 198.83 304.117 197.091 304.385 196.608C304.68 196.077 304.993 194.479 305.385 194.015C305.542 193.828 305.556 193.528 305.635 193.308C305.684 193.172 305.793 193.069 305.817 192.936C305.864 192.678 306.069 192.312 306.242 192.118C306.644 191.666 307.046 191.172 307.654 190.92C307.951 190.798 308.11 190.519 308.423 190.405Z" fill="#FFFDFD"/>
<path d="M468.796 129.41C468.796 129.41 471.855 127.028 472.796 126.91C476.296 124.41 480.944 123.361 483.674 122.713C486.174 122.12 489.902 120.714 492.546 120.714C494.433 120.714 496.32 120.215 498.207 120.215C502.898 120.215 507.686 120.137 512.136 121.621C515.64 122.788 518.286 124.208 521.674 125.714C525.865 127.577 525.12 128.134 529.174 130.714C530.49 131.552 536.206 135.32 537.297 136.41C539.033 138.146 538.612 138.726 540.297 140.41C542.89 143.004 541.077 141.328 543.297 144.41C545.051 146.847 543.353 144.245 544.797 146.41C545.635 147.669 547.304 148.486 547.797 149.91C548.058 150.664 551.371 155.271 551.798 155.91C552.41 156.828 554.824 161.596 555.174 162.714C555.949 165.194 556.959 166.854 557.174 167.714C558.174 171.714 557.685 171.491 558.174 173.714C559.931 181.714 561.674 189.214 561.674 197.214V207.214C561.674 212.018 562.765 214.159 561.674 219.714C560.263 226.895 558.626 229.714 557.297 234.714C556.297 238.474 555.67 241.379 553.174 245.714C551.554 248.528 549.954 251.888 547.797 254.714C546.714 256.132 544.207 258.682 543.297 260.41C541.833 263.192 537.808 266.104 535.297 267.91C530.797 271.148 527.236 273.249 522.674 275.91C516.674 279.41 516.174 279.302 510.674 281.214C507.056 282.472 504.178 281.214 499.674 281.214H490.674C490.674 281.214 485.756 280.472 485.434 280.266C484.451 280.237 482.744 280.082 481.174 279.559C479.984 279.162 478.184 278.617 477.174 277.91C475.742 276.91 472.535 276.365 471.674 275.91C469.575 274.803 468.679 273.44 466.674 272.214C464.99 271.185 464.143 271.044 462.674 269.648C461.204 268.251 460.703 267.91 458.674 266.41C457.877 265.822 455.943 262.373 455.174 261.714C454.036 260.739 453.669 259.862 452.674 258.714C451.12 256.922 450.45 256.699 449.174 254.714C446.932 251.227 446.374 251.454 444.674 247.714C442.174 242.214 443.674 246.214 441.174 240.214C440.537 238.686 438.796 232.214 438.297 230.714C437.86 229.402 437.797 227.214 437.297 224.714C436.592 221.193 435.174 218.75 435.174 215.214C435.174 211.214 435.674 208.91 435.174 204.41C434.975 202.621 435.174 197.025 435.174 195.246C435.174 194.336 434.898 189.595 435.174 188.714C435.86 186.516 436.348 183.993 436.674 181.714C436.888 180.213 436.531 177.593 437.297 176.214C438.075 174.814 437.893 172.688 438.674 171.214C439.406 169.831 440.983 165.83 441.174 164.214C441.346 162.752 442.53 162.123 443.173 160.838C444.361 158.461 446.318 156.546 447.502 154.178C449.944 149.293 452.383 145.601 455.674 141.214C457.855 138.306 461.229 135.583 463.796 133.016C464.546 132.266 468.796 129.41 468.796 129.41Z" fill="#251A38"/>
<path d="M478.674 136.847C479.666 136.342 483.593 134.48 484.674 134.48C486.008 133.839 486.702 133.544 488.174 133.342C488.878 133.245 490.508 132.984 491.174 132.714C492.351 132.237 493.174 132.714 495.174 132.714L499.174 132.714H502.674C505.674 132.714 506.441 132.865 508.674 133.342C510.486 133.729 512.831 135.116 514.674 135.214C515.588 135.263 516.945 136.179 517.674 136.714C518.174 137.081 519.079 137.939 519.674 138.214C521.119 138.883 520.718 138.542 522.174 139.214C523.629 139.886 526.186 140.329 527.222 141.311C528.174 142.214 530.099 144.429 530.599 144.937C532.191 146.552 532.674 147.714 535.674 150.214C536.079 150.552 536.844 151.794 537.174 152.214C537.742 152.937 537.682 152.991 538.174 153.714C538.752 154.564 539.625 156.392 540.174 157.214C541.174 158.714 542.014 159.764 542.674 161.214C543.062 162.067 544.174 163.714 544.674 165.214C545.174 166.714 546.048 167.848 546.174 168.214C547.174 171.124 547.145 170.129 547.674 171.714C548.174 173.214 548.674 175.214 548.674 175.214C548.674 175.214 549.482 178.139 549.674 178.714C550.174 180.214 550.08 180.838 550.174 181.214C550.674 183.214 550.812 184.129 551.174 185.214C551.674 186.714 551.749 189.31 551.941 190.419C552.464 193.435 551.941 194.942 551.941 195.948C551.941 200.298 552.329 205.681 551.941 209.214C551.174 216.214 551.022 219.176 550.373 222.083C549.674 225.214 549.473 225.115 548.674 226.714C547.674 228.714 547.447 229.42 547.273 231.589C546.956 235.552 543.607 238.818 542.379 242.657C541.87 244.247 540.704 246.162 539.917 247.675C539.093 249.259 538.059 250.819 536.77 251.99C533.308 255.133 529.739 258.21 526.392 261.428C524.968 262.798 523.138 263.747 521.687 265.143C520.995 265.808 520.073 266.511 519.241 266.956C518.373 267.419 516.927 268.387 516.015 268.439C514.558 268.521 512.505 269.696 511.029 270.117C509.607 270.522 508.076 270.35 506.604 270.746C504.938 271.194 503.046 271.589 501.307 271.675C500.116 271.733 498.804 271.605 497.576 271.675C496.893 271.713 497.362 271.675 495.674 271.675C493.386 271.675 491.587 270.945 489.589 270.536C486.947 269.996 484.699 268.244 482.079 267.884C480.3 267.64 477.828 266.079 476.47 264.918C473.978 262.789 470.762 261.149 468.174 259.214C466.755 258.153 465.422 256.883 464.121 255.757C462.787 254.602 461.542 252.116 460.462 250.731C458.462 248.167 456.366 245.885 454.656 243.091C454.291 242.495 453.77 241.983 453.472 241.339C453.269 240.899 452.849 240.5 452.693 240.065C452.544 239.651 452.744 239.179 452.568 238.777C450.849 234.851 448.808 230.662 447.847 226.508C447.546 225.203 446.594 223.619 446.04 222.448C445.424 221.145 445.302 219.564 445.302 218.214C445.302 217.272 444.548 214.59 444.497 213.714C444.455 212.981 444.66 212.918 444.497 212.214C444.085 210.429 444.357 210.379 444.357 208.512V204.492C444.357 203.707 444.653 204.492 444.357 201.476C444.232 200.208 444.357 197.958 444.357 197.958C444.357 197.958 444.151 195.972 444.497 194.44C444.715 193.478 444.091 192.592 444.497 191.714C444.848 190.955 445.074 188.98 445.302 188.214C445.481 187.61 446.04 186.091 446.04 185.393C446.04 184.113 446.419 182.239 446.959 181.071C447.669 179.534 447.95 177.682 448.486 176.007C448.961 174.523 449.774 173.274 450.122 171.768C450.456 170.322 450.882 168.809 451.509 167.453C452.178 166.006 453.219 164.523 454.033 163.154C454.782 161.894 454.599 160.395 455.674 159.214C456.747 158.034 456.105 157.356 457.174 156.214C458.021 155.309 459.413 153.912 459.674 152.714C460.34 149.65 465.271 146.583 467.174 144.937C469.754 142.704 472.559 140.023 475.674 138.525C476.997 137.889 477.424 137.483 478.674 136.847Z" fill="white"/>
<path d="M486.174 170.714L489.174 170.714C489.666 170.714 492.223 170.564 492.674 170.714C494.071 171.18 493.191 170.754 494.464 171.485C495.042 171.817 495.091 171.961 495.674 172.307C495.927 172.457 496.518 172.559 497.174 173.214C497.674 173.714 498.384 174.302 499.174 174.714C499.479 174.873 500.35 175.587 500.674 175.714C501.678 176.109 502.674 177.714 502.674 177.714C502.674 177.714 503.726 178.964 504.174 179.714C504.901 180.933 504.315 180.601 505.174 181.714C505.46 182.086 506.29 182.937 506.674 183.214C507.104 183.525 507.255 184.889 507.674 185.214C508.287 185.691 508.47 187.001 508.674 187.714C508.877 188.427 509.411 189.48 509.674 190.214C509.898 190.842 510.374 191.614 510.674 192.214C510.941 192.749 510.897 193.161 511.174 193.714C511.674 194.714 511.4 194.618 511.674 195.714C512.674 199.714 512.467 199.127 512.674 199.883C513.174 201.714 512.826 200.325 513.174 201.714C513.674 203.714 513.674 203.714 513.674 205.214V208.714V211.714C513.674 212.462 513.552 212.982 513.674 213.714C514.174 216.714 514.174 217.214 514.174 220.714C514.174 222.901 513.108 225.043 512.674 227.214C512.444 228.364 512.042 229.61 511.674 230.714C511.519 231.179 511.337 232.256 511.174 232.714C510.965 233.298 510.104 234.098 510.009 234.714C509.88 235.549 509.387 235.905 509.174 236.714C509.014 237.321 508.585 238.751 508.174 239.214C507.779 239.658 507.063 240.75 506.674 241.214C505.763 242.3 506.16 242.199 505.174 243.214C504.494 243.913 503.661 244.36 503.174 245.214C502.505 246.383 501.723 247.165 501.216 247.672L501.174 247.714C500.674 248.214 499.174 248.929 498.674 249.214C497.568 249.844 497.561 248.826 496.674 249.714C496.174 250.214 494.868 250.714 493.674 250.714C492.457 250.714 490.342 250.978 489.174 251.238C488.233 251.447 487.417 251.449 486.481 251.238C483.928 250.661 480.674 249.214 478.674 248.214C477.75 247.752 476.826 246.994 476.174 246.452C475.267 245.699 475.238 245.738 474.674 245.214C473.339 243.976 473.174 243.714 472.839 243.246C472.271 242.451 471.674 242.214 470.674 241.214C470.267 240.807 469.674 239.714 469.174 239.214C468.373 238.413 468.674 238.089 467.674 236.214C467.196 235.317 466.723 234.312 466.174 233.214C465.674 232.214 465.674 232.714 465.174 231.214C464.674 229.714 463.967 228.378 463.674 226.714C463.392 225.114 462.935 223.819 462.674 222.214C462.476 221 462.425 219.408 462.174 218.214C461.903 216.925 461.674 215.532 461.674 214.214C461.674 212.531 461.613 211.887 461.674 210.214C461.713 209.12 461.538 207.801 461.674 206.714C461.811 205.613 461.674 204.817 461.674 203.714L461.674 199.714L461.674 199.712C461.674 198.184 461.674 197.214 462.174 196.714C462.674 196.214 462.358 195.847 462.674 195.214C463.174 194.214 462.837 193.887 463.174 193.214C463.438 192.685 463.674 192.214 463.674 191.714C463.674 191.054 464.531 189.356 464.674 188.714C464.715 188.531 465.544 186.36 465.674 186.214C465.93 185.926 466.173 185.214 466.674 184.714C467.174 184.214 467.5 183.605 467.674 183.214C467.847 182.823 468.47 181.581 468.674 181.214C469.059 180.521 470.183 179.819 470.674 179.214C471.077 178.717 473.174 176.801 472.174 177.714C471.174 178.628 474.195 175.809 474.628 175.246C475.617 173.957 474.567 175.398 475.674 174.214C476.212 173.638 478.174 173.214 478.174 173.214C478.174 173.214 478.674 172.708 479.674 172.214C480.48 171.816 480.882 172.11 481.674 171.714C482.674 171.214 483.612 171.173 484.174 170.714C484.45 170.635 485.859 170.714 486.174 170.714Z" fill="#251A38"/>
<path d="M492.423 188.405C492.697 188.305 492.921 187.873 493.213 187.873C493.394 187.782 493.667 187.588 493.883 187.492C494.109 187.392 494.394 187.319 494.633 187.266C495.223 187.135 496.006 187.278 496.561 187.401C497.608 187.634 498.708 188.052 499.667 188.532C500.102 188.749 500.494 189.036 500.92 189.261C501.667 189.657 502.252 190.095 502.769 190.753C503.029 191.084 503.235 191.504 503.578 191.761C503.811 191.936 504.088 192.136 504.268 192.439C504.451 192.745 504.879 193.373 504.879 193.373C504.879 193.373 505.295 193.891 505.308 194.117C505.331 194.528 505.635 194.468 505.712 194.873C505.808 195.373 505.818 196.153 505.935 196.489C506.108 196.99 505.935 198.344 505.935 198.873C505.935 199.59 506.089 199.18 505.935 199.873C505.865 200.185 506.018 200.303 505.935 200.619C505.844 200.962 505.46 201.669 505.308 201.989C504.951 202.739 504.938 203.009 504.879 203.569C504.856 203.787 504.39 204.356 504.268 204.542C504.107 204.789 504.054 205.114 503.915 205.363C503.709 205.736 503.26 206.305 502.916 206.573C502.726 206.721 502.575 206.896 502.396 207.057C502.266 207.174 501.943 207.364 501.88 207.505C501.646 208.032 500.678 208.346 500.234 208.652C499.909 208.875 499.606 209.106 499.274 209.29C499.07 209.404 498.686 209.326 498.453 209.326C497.692 209.326 496.798 209.004 496.065 208.81C494.89 208.499 493.869 207.891 492.919 207.152C492.55 206.865 492.237 206.506 491.9 206.168C491.654 205.922 491.357 205.522 491.071 205.331C490.861 205.191 490.645 204.574 490.384 204.542C490.215 204.521 489.913 203.854 489.813 203.701C489.708 203.54 489.456 203.258 489.456 203.078C489.456 202.84 489.275 202.462 489.226 202.201C489.162 201.855 488.385 200.709 488.385 200.373C488.385 199.86 488.414 200.369 488.385 199.873C488.342 199.141 488.385 199.595 488.385 198.873C488.385 198.242 488.065 198.036 488.212 197.373C488.333 196.83 488.117 195.091 488.385 194.608C488.68 194.077 488.993 192.479 489.385 192.015C489.542 191.828 489.556 191.528 489.635 191.308C489.684 191.172 489.793 191.069 489.817 190.936C489.864 190.678 490.069 190.312 490.242 190.118C490.644 189.666 491.046 189.172 491.654 188.92C491.951 188.798 492.11 188.519 492.423 188.405Z" fill="#FFFDFD"/>
<path d="M505.173 316.214C511.173 313.714 508.908 312.714 509.673 311.214C509.673 309.997 509.47 309.93 509.541 308.714C509.581 308.035 510.693 307.461 512.173 307.214C515.173 306.714 515.135 306.292 517.673 307.214C523.173 309.214 524.674 310.049 528.173 314.714C529.673 316.714 531.673 321.714 531.173 324.214C530.471 327.725 531.849 328.897 528.173 329.714C526.6 330.064 521.729 323.56 520.173 323.214C519.209 323 517.977 331.03 517.673 331.714C516.952 333.337 515.776 337.026 515.173 338.714C514.765 339.857 513.174 343.111 512.673 344.214C510.173 349.714 510.533 348.995 509.173 351.714L503.673 362.714C501.306 367.447 498.903 370.991 495.673 375.214L495.084 375.984C489.147 383.749 488.695 384.339 485.173 388.214C481.734 391.997 478.778 395.525 475.173 399.214C471.607 402.863 471.765 403.645 467.673 406.714C459.673 412.714 459.254 413.278 456.673 415.214C452.673 418.214 451.192 419.167 449.673 419.714C447.288 420.573 440.96 423.198 438.673 424.432C435.893 425.932 434.82 426.165 431.673 427.214C428.673 428.214 429.389 428.207 426.173 429.214C421.383 430.714 421.057 430.349 416.673 430.714C410.673 431.214 410.129 431.573 407.501 431.714C398.173 432.214 400.231 432.214 398.173 432.214H393.173C390.071 432.214 390.227 432.15 387.173 431.714C380.173 430.714 381.173 430.714 377.673 430.214C375.379 429.886 375.032 429.686 372.673 429.214C367.673 428.214 365.94 427.348 361.922 426.435C357.169 425.355 352.895 423.248 348.673 420.714C336.173 413.214 330.107 408.447 319.173 399.214C315.915 396.463 309.307 389.335 307.003 385.714C304.64 382.001 302.673 380.714 299.503 374.714C297.704 371.309 294.712 368.305 293.173 364.714C291.673 361.214 290.194 358.636 288.673 355.214C288.194 354.137 287.288 351.56 286.673 350.714C285.897 349.647 283.967 346.537 283.673 345.214C283.317 343.612 282.293 339.644 281.673 338.714C279.673 335.714 279.689 331.45 278.673 331.45C278.669 331.45 277.173 324.39 277.173 323.411C277.173 322.418 274.673 325.302 273.173 326.714C272.716 327.144 270.505 329.353 270.173 329.714C268.304 331.747 270.302 330.4 267.673 331.714C265.673 332.714 265.259 332.558 264.673 330.214C264.173 328.214 264.173 327.877 264.173 325.714C264.173 324.954 263.674 323.181 264.174 322.214C264.817 320.969 264.519 320.196 265.174 319.214C266.174 317.714 266.221 316.929 267.174 316.214C269.174 314.714 268.287 314.923 270.173 313.178C270.674 312.714 273.686 310.039 274.174 309.714C275.674 308.714 277.342 308.023 278.673 308.023C282.176 308.023 281.164 307.494 284.174 309.214C285.662 310.064 285.673 312.459 284.954 313.178C282.184 315.948 284.975 316.365 287.557 317.21C294.263 319.404 300.825 321.798 307.743 323.181C310.546 323.742 312.454 323.904 315.173 324.714C328.173 328.592 341.599 329.389 353.673 330.99C366.673 332.714 377.761 332.714 390.173 332.714H410.673C416.542 332.714 424.44 333.67 430.173 332.714C436.173 331.714 440.512 331.209 444.673 330.99C450.353 330.692 453.673 329.714 459.673 328.714C465.673 327.714 470.812 326.45 475.173 325.214C478.701 324.214 477.842 323.742 480.173 323.214C493.426 320.214 488.386 321.241 490.173 320.714C498.173 318.358 494.899 319.436 498.673 318.358C506.176 316.214 502.731 317.232 505.173 316.214Z" fill="#251A38"/>
<path d="M447.174 404.214C447.981 403.407 448.674 403.686 448.674 402.714C448.674 402.156 449.288 401.229 449.174 400.714C449.024 400.041 447.674 399.864 447.174 399.714C446.232 399.432 445.096 398.643 444.174 398.301C443.353 397.996 441.978 397.177 441.174 396.921C439.353 396.342 437.597 395.474 435.723 395.214C424.923 393.715 423.654 392.714 413.674 392.714L406.174 392.714C404.712 392.714 402.598 392.397 401.174 392.713C398.96 393.205 395.425 392.913 393.174 393.213C391.583 393.425 387.795 394.142 386.174 394.214C384.074 394.307 381.213 394.927 379.174 395.437C376.202 396.18 374.479 395.974 371.518 396.714C369.37 397.251 367.497 398.105 365.438 398.715C364.588 398.967 362.965 400.062 362.168 400.415C361.319 400.793 363.674 400.72 358.174 402.019C352.077 403.46 350.329 406.491 351.174 407.019C352.536 407.871 353.593 408.334 354.932 409.261C356.811 410.562 358.512 411.994 360.674 412.714C362.174 413.214 362.966 412.796 364.174 413.214C365.015 413.505 365.759 414.163 366.674 414.214C367.243 414.246 368.092 414.714 368.674 414.714C369.532 414.714 370.699 414.885 371.518 415.159C374.674 416.214 377.012 417.489 380.174 418.245C380.739 418.38 381.754 417.909 382.174 418.245C382.51 418.514 384.237 418.62 384.657 418.807C385.166 419.033 385.612 418.807 386.174 418.807H394.174C399.174 418.807 397.674 419.214 404.674 418.807C405.361 418.767 405.525 419.063 406.174 418.714C406.433 418.574 407.898 418.245 408.174 418.245H410.174C411.791 418.245 413.556 417.438 415.174 417.438C417.209 417.438 418.961 416.541 420.989 416.406C422.238 416.322 423.766 416.114 424.923 415.588C425.994 415.101 426.847 414.542 428.05 414.199C429.241 413.858 430.536 412.697 431.83 412.554C432.889 412.436 434.148 411.932 435.14 411.491C436.44 410.914 437.848 410.388 439.186 409.754C439.969 409.384 439.943 409.201 440.674 408.714C441.141 408.402 441.536 408.224 442.174 407.714C442.94 407.101 442.907 407.404 443.674 406.714C444.013 406.408 443.774 406.425 444.174 406.214C444.586 405.995 444.758 405.958 445.174 405.714C445.867 405.306 446.601 404.786 447.174 404.214Z" fill="#9B5B92"/>
<path d="M327.981 341.214C330.673 339.714 328.462 340.125 330.674 340.402C333.674 341.214 335.451 342.319 337.674 342.714C343.174 343.691 345.662 343.6 350.674 344.714C355.174 345.714 358.149 346.038 361.674 346.214C371.669 346.714 373.49 346.714 383.161 346.714H383.174C386.844 346.714 396.106 346.912 399.674 346.714C402.226 346.572 406.039 346.714 408.674 346.714C416.021 346.714 423.419 346.826 430.674 345.214C433.538 344.577 435.796 345.036 438.674 344.214C440.192 343.78 442.619 343.559 444.174 343.214C445.231 342.979 447.086 342.431 448.174 342.292C452.674 341.714 453.71 341.599 457.174 341.214C458.141 341.106 460.78 340.611 461.674 340.214C463.068 339.594 466.264 339.818 467.674 339.214C470.084 338.181 470.844 338.049 473.174 339.214C475.174 340.214 474.146 340.422 473.174 342.292C472.174 344.214 470.912 347.292 469.174 348.714C463.674 353.214 464.428 352.246 461.674 354.214C458.174 356.714 463.674 352.714 452.674 358.714C447.946 361.292 452.174 359.214 446.174 361.714C442.931 363.065 440.175 363.995 436.674 364.214C434.669 364.339 430.165 365.492 428.174 365.714C426.056 365.949 420.801 367.714 418.674 367.714C415.983 367.714 413.899 368.12 411.174 368.214C399.674 368.611 406.174 368.312 394.174 367.812C384.61 367.414 378.141 368.579 371.174 367.312L371.169 367.311C367.674 366.676 366.726 366.503 363.174 365.714C361.258 365.288 356.674 364.714 356.674 364.714C356.674 364.714 354.008 364.011 352.674 363.714C349.988 363.117 346.566 362.162 344.091 361.062C342.227 360.234 339.929 359.458 338.403 358.237C334.315 354.966 329.228 352.327 327.981 346.714C327.593 344.969 326.339 342.129 327.981 341.214Z" fill="white"/>
<path d="M272.174 593C272.174 599.899 271.674 604.971 271.674 611.707C271.674 618.567 272.174 625.707 272.174 632.207C272.174 641.221 272.674 650.207 272.674 658.707C272.674 669.219 272.174 671.707 272.174 683.707V691.207C272.174 692.59 270.674 694.24 270.674 695.707C270.674 697.633 267.239 698.955 265.674 700.207C263.739 701.754 258.14 698.019 256.267 696.769L256.174 696.707C253.174 694.707 252.861 694.402 252.174 693.714C251.486 693.026 251.674 693.714 249.174 691.207C246.674 688.7 248.174 690.214 244.174 686.207C242.717 684.748 233.709 675.249 232.174 673.714C231.41 672.95 219.534 683.881 217.674 686.207C213.769 691.088 212.174 694.214 204.674 698.234C202.517 699.389 196.674 702.214 194.174 698.234C192.492 695.555 192.231 696.475 192.486 693.207C193.173 684.394 192.986 672.707 192.486 663.214C192.211 658.007 193.174 644.996 193.174 639.714L193.174 624.714V608.714C193.174 599.714 192.173 593 193.174 593H222.5C234.845 593 236 592.994 247 593C247.15 593 247.263 593 247.344 593C247.71 593 248.595 593 250.5 593H258.5H265H272.174Z" fill="#181029"/>
<path d="M204.706 602.714V596.596L211.673 596.596C216.673 596.596 216.111 596.603 220.173 596.596C223.173 596.591 225.173 596.591 229.173 596.596C232.043 596.6 235.776 596.596 238.673 596.596H246.221C249.496 596.596 253.394 596.591 256.673 596.591C257.793 596.591 256.173 596.559 259.166 596.591C259.648 596.596 259.648 601.699 259.648 602.214V616.214V628.646V645.714V652.714V657.714V661.714V667.214V674.714V679.214C259.648 680.714 259.605 680.67 259.648 681.822C259.667 682.327 259.032 681.638 259.648 682.714C260.083 683.473 257.818 682.43 257.185 681.822C255.969 680.652 254.401 679.279 253.174 678.141C252.174 677.214 250.174 675.714 248.919 674.308C246.788 671.918 244.769 669.083 242.174 667.214C240.949 666.332 239.974 664.889 238.674 664.048C237.571 663.334 236.759 662.334 235.674 661.714C233.687 660.579 231.919 658.205 229.4 658.868C227.516 659.364 225.518 660.161 224.474 661.986C224.056 662.718 223.379 663.35 222.841 664.048C221.174 666.214 221.045 666.015 219.674 667.714C219.161 668.349 218.246 668.788 217.674 669.361C217.303 669.732 215.818 670.683 215.496 671.124C214.705 672.206 214.174 672.714 213.174 673.714C212.376 674.512 211.674 675.714 210.174 677.214C209.718 677.67 208.567 678.722 208.174 679.214C207.824 679.651 205.272 681.214 204.674 681.214L204.674 676.714C204.674 674.95 204.626 673.52 204.673 671.714C204.739 669.205 204.673 669.254 204.673 666.714V662.714L204.673 655.214C204.673 651.214 204.673 651.075 204.673 647.214L204.673 638.714V631.714V626.214C204.673 625.74 204.681 623.682 204.706 623.214C204.739 622.591 204.706 620.815 204.706 620.214V616.714V613.714V610.214V602.714Z" fill="#7B5B9B"/>
<path d="M502.674 67.1218C504.461 67.2277 505.174 67.2277 506.685 67.7139C510.687 67.7139 514.522 70.0384 518.443 70.2562C520.483 70.3695 521.868 71.4242 523.674 72.214C528.165 74.1791 528.797 75.0256 533.174 77.214C535.874 78.5643 538.958 80.6153 541.174 82.714C543.016 84.4593 545.675 86.132 547.174 88.214C548.938 90.6651 550.093 93.1449 551.674 95.714C553.612 98.8638 554.674 99.8084 554.674 103.714C554.674 105.857 554.735 105.25 554.174 107.214C553.542 109.423 553.022 106.8 551.562 106.703C548.38 106.49 546.674 105.214 543.459 102.527C541.122 100.574 537.58 100.335 534.967 98.7139C533.472 97.7857 531.841 97.3024 530.174 96.7139C528.568 96.1473 527.978 96.0384 525.174 95.1037C522.37 94.169 519.163 93.0117 516.219 92.2437C513.559 91.5499 509.467 91.4493 506.685 91.4493C504.933 91.4493 502.543 90.9726 500.807 90.9726C496.834 90.9726 493.232 91.4493 488.674 91.4493C487.786 91.4493 485.365 91.8185 484.6 92.2437C484.09 92.5272 482.747 93.2896 482.217 93.3559C481.443 93.4527 480.698 94.3093 479.833 94.3093C478.988 94.3093 477.127 94.7528 476.356 95.1037C474.816 95.8036 472.276 95.2125 470.936 94.4681C469.42 93.626 469.591 94.0189 468.552 92.7204C467.748 91.7146 467.281 87.4757 467.281 86.206C467.281 84.5118 467.165 82.4964 467.846 80.9627C468.205 80.1543 468.787 79.5836 469.174 78.7139C469.478 78.0297 472.277 77.3024 471.412 76.2139C470.995 75.6892 473.319 74.2717 473.319 74.2717C473.319 74.2717 474.658 73.8578 475.174 73.2139C476.283 71.8276 478.501 72.2801 479.833 71.2139C481.391 69.9676 482.608 68.9985 484.6 68.7139C485.335 68.609 488.099 68.1738 488.674 67.7139C489.509 67.0452 490.687 67.447 491.674 67.2277C493.657 66.7869 495.641 67.1218 497.674 67.1218C499.027 67.1218 501.239 67.0367 502.674 67.1218Z" fill="#2C212B"/>
<path d="M283.174 70.214C284.416 70.214 284.484 70.0677 285.708 70.2207C286.575 70.3291 288.275 70.7793 289.115 70.3128C289.851 69.9037 291.387 70.2092 292.223 70.2092H295.365C296.883 70.2092 298.49 70.549 299.992 70.7847C301.416 71.0081 302.938 71.5815 304.343 71.6595C306.514 71.7801 308.974 72.4292 310.974 73.271C312.047 73.7228 313.176 74.1192 314.266 74.6638C315.102 75.0822 315.655 75.9689 316.453 76.4249C316.722 76.5791 317.446 76.9526 317.604 77.1501C318 77.6454 318.984 78.3776 319.572 78.5083C320.621 78.7414 320.803 80.2687 321.437 80.7759C322.042 81.2602 322.28 82.8535 322.68 83.573C323.11 84.3465 323.363 85.6547 323.601 86.4852C324.067 88.117 323.169 90.2511 322.68 91.9642C322.244 93.4894 320.655 94.4034 319.572 95.4864C318.269 96.7895 316.036 95.9008 314.266 95.9008C311.959 95.9008 309.874 94.7457 307.673 94.6577C306.478 94.6099 305.173 94.8649 305.173 94.8649C305.173 94.8649 303.508 94.2924 302.673 94.2433C301.792 94.1915 300.821 94.6577 299.889 94.6577C298.942 94.6577 297.886 94.2433 296.988 94.2433C296.446 94.2433 294.525 93.723 294.191 94.1397C293.727 94.7197 290.814 94.7473 290.197 94.8649C289.723 94.9551 289.131 95.2793 288.701 95.2793C287.951 95.2793 287.229 95.0721 286.445 95.0721H283.728C282.261 95.0721 281.096 94.9631 279.673 95.2793C278.797 95.474 276.897 96.0656 276.173 96.214C275.163 96.4212 274.99 96.7296 274.094 96.7296C273.3 96.7296 271.897 96.7118 271.239 97.19C270.413 97.7906 268.82 97.5302 267.878 97.9267C266.875 98.349 265.761 98.467 264.77 98.9626C263.794 99.4508 262.708 99.7555 261.835 100.367C260.973 100.97 259.265 100.918 258.554 101.806C257.946 102.566 256.383 103.098 255.562 103.567C254.919 103.934 253.151 104.416 252.753 104.914C252.468 105.269 251.956 105.308 251.671 105.593C251.334 105.93 250.883 106.388 250.474 106.629C249.603 107.141 248.882 107.881 247.988 108.378C246.183 109.381 244.635 110.886 242.808 111.901C241.971 112.365 241.414 112.948 240.483 113.259C239.641 113.54 238.49 112.263 237.673 111.901C236.293 111.287 237.544 111.302 236.674 110.214C236.246 109.679 236.173 106.394 236.173 105.714C236.173 104.683 236.457 104.19 236.673 103.214C237.018 101.664 237.006 98.8817 238.173 97.714C239.21 96.677 238.804 96.9918 239.493 95.7857C239.821 95.2117 240.911 94.1498 241.473 93.8289C242.333 93.3372 242.892 92.4426 243.729 91.9642C244.505 91.5208 245.013 90.6338 245.755 90.0995C246.618 89.4781 247.288 88.4853 248.195 87.9815C248.297 87.9249 248.396 87.8643 248.492 87.8003C246.047 88.4474 253.628 83.6532 251.556 85.0348C250.413 85.7968 249.636 87.0397 248.492 87.8003C249.247 87.6003 253.881 82.9782 254.673 82.714C255.421 82.465 255.987 81.0885 256.673 80.714C257.839 80.0783 255.934 81.2611 257.173 80.7759C258.281 80.3424 260.807 77.746 261.835 77.1501C264.77 75.4479 267.673 74.214 270.173 73.271C270.696 73.0737 276.089 71.7975 276.626 71.6595C277.273 71.4933 282.933 70.6949 283.174 70.214Z" fill="#2C212B"/>
</svg>
